<ttFont>
          <CharString index="0">
            rmoveto
            -23 30 -49 45 -42 16 -35 -21 -37 -49 -23 -45 25 -35 56 -42 37 -14 36 24 39 49 16 42 rrcurveto
            return
          </CharString>
          <CharString index="1">
            132 -99 callsubr
            return
          </CharString>
          <CharString index="2">
            -105 callgsubr
            endchar
          </CharString>
          <CharString index="3">
            vlineto
            -76 52 rlineto
            return
          </CharString>
          <CharString index="4">
            505 -104 callsubr
            return
          </CharString>
          <CharString index="5">
            -13 0 107.5 -107.5 222.5 59.5 102.5 66.5 215 -104 104 354 callgsubr
            213 callgsubr
            hintmask 10101001
            22 32 rmoveto
            6 -32 rlineto
            579 hlineto
            1 hlineto
            hintmask 01101001
            8 64 6 95 -2 59 -115 9 rcurveline
            hintmask 10101001
            -39 -113 -149 -13 rlineto
            185 vlineto
            203 -8 rlineto
            115 vlineto
            -203 -17 rlineto
            191 vlineto
            144 -10 rlineto
            hintmask 10110001
            20 -106 rlineto
            115 hlineto
            hintmask 10101001
            15 69 8 100 -2 46 rrcurveto
            -585 hlineto
            hintmask 10100011
            -1 -55 rlineto
            hintmask 10100101
            230 callgsubr
            hintmask 10101001
            -32 -16 -28 -17 -25 -19 rrcurveto
            return
          </CharString>
          <CharString index="6">
            rmoveto
            -48 -27 -36 -39 -9 -57 24 -43 35 -29 51 -17 45 24 29 35 16 47 -14 47 -44 38 -49 21 rrcurveto
            257 hmoveto
            -48 -27 -36 -39 -9 -57 24 -43 35 -29 51 -17 45 24 29 35 16 47 -14 47 -44 38 -49 21 rrcurveto
            return
          </CharString>
          <CharString index="7">
            53 callsubr
            104 69 rlineto
            -48 28 42 -26 42 hhcurveto
            143 82 -3 45 rlineto
            -1 -24 -13 -1 -16 hhcurveto
            -16 -8 12 14 hvcurveto
            195 vlineto
            56 -2 30 -10 16 vhcurveto
            54 -41 -53 20 -59 hhcurveto
            -60 -123 -19 -32 -91 hvcurveto
            -8 -52 6 -60 15 -49 114 1 rcurveline
            29 112 9 5 15 4 13 1 rlinecurve
            21 -11 24 -24 -63 vvcurveto
            -75 vlineto
            -188 -4 rlineto
            189 callgsubr
            return
          </CharString>
          <CharString index="8">
            -69 -87 callsubr
            return
          </CharString>
          <CharString index="9">
            -167 -17 125 279 callgsubr
            89 -89 284.5 -91 91 hstemhm
            8 188 128 179 hintmask 11011100
            252 413 rmoveto
            39 -5 27 -46 6 -49 -128 -9 rcurveline
            8 45 18 44 30 20 rrcurveto
            209 -266 rmoveto
            -26 -48 -37 -13 -42 hhcurveto
            hintmask 10101100
            -72 -54 38 74 -13 hvcurveto
            249 -1 59 59 rlineto
            170 1 -134 56 -98 hhcurveto
            -134 -130 -103 -165 -181 159 -97 164 31 hvcurveto
            158 96 rlineto
            return
          </CharString>
          <CharString index="10">
            rmoveto
            -8 14 -6 16 -6 15 rrcurveto
            101 26 42 56 63 vvcurveto
            return
          </CharString>
          <CharString index="11">
            hhcurveto
            27 25 5 11 24 hvcurveto
            -69 callgsubr
            return
          </CharString>
          <CharString index="12">
            65 -83 rlineto
            return
          </CharString>
          <CharString index="13">
            -96 callsubr
            505 vlineto
            -76 52 rlineto
            return
          </CharString>
          <CharString index="14">
            -25 -49 rlineto
            return
          </CharString>
          <CharString index="15">
            15 277 rmoveto
            -88 callgsubr
            return
          </CharString>
          <CharString index="16">
            -60 callgsubr
            -164 77 113 -67 111 hhcurveto
            32 25 6 12 24 hvcurveto
            -38 380 callsubr
            return
          </CharString>
          <CharString index="17">
            -95 callsubr
            332 -103 hlineto
            -83 45 rlineto
            -146 30 -85 -101 -99 vvcurveto
            return
          </CharString>
          <CharString index="18">
            25 49 rlineto
            return
          </CharString>
          <CharString index="19">
            97 -126 59 58 71 41 54 -5 rlinecurve
            1 -4 0 -4 -5 vvcurveto
            -35 -27 -39 -46 -29 vhcurveto
            -49 -4 -56 -25 -34 -31 105 -154 rcurveline
            return
          </CharString>
          <CharString index="20">
            54 27 rlineto
            return
          </CharString>
          <CharString index="21">
            83 -49 49 return
          </CharString>
          <CharString index="22">
            25 49 -93 callgsubr
            return
          </CharString>
          <CharString index="23">
            -95 callsubr
            342 -52 -122 hlineto
            -129 -64 -63 -74 -89 96 -92 162 -52 hvcurveto
            158 42 -17 -57 -99 -56 -86 13 rlinecurve
            -60 84 -84 2 -38 -143 52 -37 49 -27 51 -14 rlinecurve
            129 -200 135 97 -122 98 rlineto
            return
          </CharString>
          <CharString index="24">
            -141 169 -87 111 12 11 1 2 11 vhcurveto
            -116 123 rmoveto
            return
          </CharString>
          <CharString index="25">
            -104 callgsubr
            hstemhm
            return
          </CharString>
          <CharString index="26">
            7 -18 -21 3 -20 hhcurveto
            -86 -97 -59 -123 -122 94 -120 215 -113 hvcurveto
            71 95 rlineto
            return
          </CharString>
          <CharString index="27">
            -184 -107 callgsubr
            return
          </CharString>
          <CharString index="28">
            63 0 55 193.5 94.5 219 112 -97 97 -76 76 -63 63 -8 -20 213 callgsubr
            149 212 hintmask 1100001110000000
            364 343 rmoveto
            -14 -16 2 5 -17 hvcurveto
            hintmask 1110000110000000
            212 vlineto
            hintmask 1101000110000000
            107 15 rlineto
            28 -30 14 -48 -44 vvcurveto
            hintmask 1100001110000000
            -70 -35 -42 -67 vhcurveto
            -332 323 rmoveto
            hintmask 1100010110000000
            -1 -55 rlineto
            hintmask 1100100110000000
            76 128 callgsubr
            363 hlineto
            1 55 -75 13 rlineto
            180 vlineto
            48 1 129 -249 rlineto
            248 hlineto
            1 55 -59 10 -132 213 rlineto
            76 37 50 66 79 vvcurveto
            117 -112 97 -175 vhcurveto
            return
          </CharString>
          <CharString index="29">
            -255 135 callsubr
            514 68 -55 55 -32 32 213 callgsubr
            hintmask 10000110
            405 hmoveto
            1 55 rlineto
            hintmask 01000110
            -89 15 rlineto
            512 -76 callgsubr
            -365 hlineto
            hintmask 10001010
            -1 -55 rlineto
            hintmask 00110010
            229 callsubr
            hintmask 10000110
            -47 callgsubr
            return
          </CharString>
          <CharString index="30">
            -58 callsubr
            190 callgsubr
            return
          </CharString>
          <CharString index="31">
            -80 -3 -75 -13 -64 -23 rlinecurve
            2 -49 75 -19 rlineto
            return
          </CharString>
          <CharString index="32">
            356 -75 callgsubr
            return
          </CharString>
          <CharString index="33">
            241 callgsubr
            323 -70 callsubr
            return
          </CharString>
          <CharString index="34">
            382 callgsubr
            -5 -100 -75 hhcurveto
            -71 -32 90 148 -45 hvcurveto
            return
          </CharString>
          <CharString index="35">
            -146 0 -21 24 -21 315 185 -73 73 21 -20 hstemhm
            10 516 hintmask 01100100
            456 160 rmoveto
            -54 -16 -118 -29 rlineto
            hintmask 01001100
            242 327 -63 61 rlineto
            hintmask 01100100
            -33 -21 rlineto
            -387 -6 hlineto
            -8 -54 1 -74 10 -51 rrcurveto
            107 hlineto
            hintmask 01010100
            46 98 78 14 -267 -372 66 -55 rlineto
            hintmask 10100100
            65 45 333 -48 14 66 13 64 13 68 rlinecurve
            return
          </CharString>
          <CharString index="36">
            119 135 callsubr
            -77 -21 625 55 -32 32 hstemhm
            107 142 312 336 callgsubr
            hintmask 10000111
            22 32 rmoveto
            6 -32 rlineto
            308 hlineto
            1 55 rlineto
            hintmask 01000111
            -88 15 rlineto
            210 vlineto
            -13 119 rlineto
            hintmask 00010111
            280 -413 rlineto
            hintmask 10000111
            179 14 7 585 29 15 26 16 23 18 rlinecurve
            -6 32 rlineto
            -310 hlineto
            hintmask 10001011
            -1 -55 98 -17 rlineto
            -224 vlineto
            14 -123 rlineto
            hintmask 10000111
            -276 418 rlineto
            1 -266 vlineto
            hintmask 00101011
            -1 -55 75 -15 rlineto
            -512 vlineto
            hintmask 10000111
            -32 -16 -28 -17 -25 -19 rrcurveto
            return
          </CharString>
          <CharString index="37">
            -132 -77 callsubr
            return
          </CharString>
          <CharString index="38">
            42 callgsubr
            hintmask 1101100110000000
            78 callsubr
            hintmask 1110010110000000
            -89 callsubr
            hintmask 1110100110000000
            -93 callgsubr
            -670 hlineto
            hintmask 1110001110000000
            -93 callsubr
            hintmask 1110100110000000
            -95 callsubr
            377 -36 61 callgsubr
            -60 -13 -75 -24 -57 hhcurveto
            -95 -86 65 101 -67 hvcurveto
            return
          </CharString>
          <CharString index="39">
            -17 335 callsubr
            25 -20 hstemhm
            83 201 98 201 hintmask 10111000
            338 hmoveto
            95 callsubr
            280 vlineto
            10 41 callsubr
            271 vlineto
            2 65 callgsubr
            206 vlineto
            hintmask 11011000
            68 callsubr
            rrcurveto
            hintmask 10111000
            -44 -15 -45 -25 -44 -32 rrcurveto
            16 vlineto
            -59 61 -76 callsubr
            -325 vlineto
            -25 -9 -34 callgsubr
            return
          </CharString>
          <CharString index="40">
            14 135 callsubr
            527 55 -32 32 hstemhm
            250 202 hintmask 10001100
            -3 666 rmoveto
            hintmask 00110100
            -1 -55 64 -11 190 -358 rlineto
            -158 vlineto
            hintmask 10001100
            -32 -16 -28 -17 -24 -19 6 -32 rcurveline
            364 hlineto
            1 55 rlineto
            hintmask 01001100
            -85 15 rlineto
            206 vlineto
            162 302 35 17 31 18 26 21 rlinecurve
            -6 32 rlineto
            -269 hlineto
            hintmask 10010100
            -1 -55 68 -12 -119 -236 rlineto
            -7 hlineto
            -28 89 rlineto
            hintmask 10001100
            -80 150 17 10 16 11 14 11 rlinecurve
            -6 32 rlineto
            return
          </CharString>
          <CharString index="41">
            98 62 rlineto
            28 -13 12 -29 -22 vvcurveto
            -35 -31 -43 -65 -84 -62 74 122 -57 vhcurveto
            return
          </CharString>
          <CharString index="42">
            -4 7 -5 9 -5 11 rrcurveto
            102 20 48 49 58 vvcurveto
            return
          </CharString>
          <CharString index="43">
            rmoveto
            13 -86 81 -116 89 -44 72 36 rcurveline
            return
          </CharString>
          <CharString index="44">
            80 -128 -33 callgsubr
            return
          </CharString>
          <CharString index="45">
            rmoveto
            35 34 26 24 19 36 117 -82 54 hhcurveto
            45 37 58 97 57 hvcurveto
            -50 43 -88 -72 rlineto
            55 -107 -71 34 -31 hhcurveto
            -39 -37 -55 -93 -61 hvcurveto
            return
          </CharString>
          <CharString index="46">
            hlineto
            hintmask 11011010
            -93 callsubr
            hintmask 11101010
            -95 callsubr
            return
          </CharString>
          <CharString index="47">
            -11 callgsubr
            -90 rlineto
            -222 103 211 -112 182 hhcurveto
            46 43 7 14 39 hvcurveto
            return
          </CharString>
          <CharString index="48">
            27 -47 98 9 -3 -89 -118 -41 rlinecurve
            21 -34 136 -4 74 71 2 64 rlinecurve
            45 2 -59 41 -78 hhcurveto
            return
          </CharString>
          <CharString index="49">
            -18 callsubr
            183 return
          </CharString>
          <CharString index="50">
            206 2 -21 33 -21 299 174 20 -107 callgsubr
            60 82 callgsubr
            152 161 hintmask 0101100110000000
            16 68 rmoveto
            133 -109 218 160 rlineto
            hintmask 1010100111000000
            -96 380 callsubr
            230 vlineto
            45 49 53 36 28 hhcurveto
            15 7 -11 -11 -30 -53 -60 -77 -50 hvcurveto
            hintmask 0110100111000000
            119 -137 rlineto
            102 61 70 83 94 vvcurveto
            110 -96 125 -116 -36 -34 -12 -19 -31 vhcurveto
            hintmask 0101100110000000
            51 381 callgsubr
            hintmask 0101010110000000
            -89 callsubr
            hintmask 0101100110000000
            -93 callgsubr
            -929 hlineto
            hintmask 0101001110000000
            -93 callsubr
            hintmask 0101100110000000
            241 callsubr
            -140 hlineto
            -71 56 -77 69 -54 vhcurveto
            3 -3 4 -2 3 -3 rrcurveto
            97 87 -91 callgsubr
            return
          </CharString>
          <CharString index="51">
            rmoveto
            -78 -13 -37 -43 -63 hhcurveto
            -56 -39 34 85 -41 hvcurveto
            -83 -66 rlineto
            -138 54 103 -69 106 hhcurveto
            120 69 89 112 19 hvcurveto
            endchar
          </CharString>
          <CharString index="52">
            -72 -17 127 305 271 -104 104 hstemhm
            7 208 hintmask 10110000
            576 164 rmoveto
            -175 -54 rlineto
            -125 1 -61 105 134 vvcurveto
            86 25 90 52 56 vhcurveto
            41 -4 36 -8 33 -12 rrcurveto
            hintmask 11010000
            36 -143 rlineto
            124 hlineto
            hintmask 10110000
            15 56 15 103 -4 46 rrcurveto
            32 -47 -64 34 -107 hhcurveto
            -247 -116 -181 -181 -156 86 -199 300 14 hvcurveto
            214 88 rlineto
            return
          </CharString>
          <CharString index="53">
            rmoveto
            -48 -27 -37 -39 -8 -57 24 -44 35 -28 51 -17 45 24 29 35 15 47 -13 46 -44 39 395 callgsubr
          </CharString>
          <CharString index="54">
            122 callsubr
            69 58 rcurveline
            88 -55 -59 72 -101 hhcurveto
            return
          </CharString>
          <CharString index="55">
            279 callsubr
            hintmask 1011010001101000
            -9 callgsubr
            -49 31 rlineto
            122 8 73 87 92 188 callsubr
            23 callgsubr
            hintmask 0101010010010000
            270 hlineto
            hintmask 0100110010010000
            129 -104 callsubr
            323 hlineto
            hintmask 0101001010101000
            -89 callsubr
            hintmask 0101010010101000
            304 callsubr
            hintmask 0101000110101000
            -93 callsubr
            hintmask 0111010010010000
            -65 callgsubr
            -78 -66 rlineto
            hintmask 0111010010101000
            86 -127 107 -68 97 -23 rrcurveto
            -73 vlineto
            return
          </CharString>
          <CharString index="56">
            -334 0 49 -49 71 424 389 callsubr
            hintmask 10110000
            6 callsubr
            hintmask 01110000
            -317 203 callsubr
            return
          </CharString>
          <CharString index="57">
            -34 -88 148 121 105 12 167 21 111 callgsubr
            -74 179 -42 129 hintmask 1101100110100000
            21 callsubr
            260 406 253 callgsubr
            -689 hlineto
            hintmask 1101001101000000
            -93 callsubr
            hintmask 1110100101000000
            81 callgsubr
            hvcurveto
            hintmask 1101100110100000
            126 84 86 89 128 callsubr
            hvcurveto
            86 callgsubr
            hintmask 1110100101000000
            258 callsubr
            hintmask 1101100101000000
            188 -104 callsubr
            return
          </CharString>
          <CharString index="58">
            151 -147 131 2 155 156 -77 64 -137 -124 -135 126 rlineto
            endchar
          </CharString>
          <CharString index="59">
            -30 callgsubr
            82 callgsubr
            return
          </CharString>
          <CharString index="60">
            353 2 -21 31 167 -167 186 93 205 callgsubr
            582 153 45 186 hintmask 1101110001000000
            50 callgsubr
            266 -156 -85 callgsubr
            hintmask 1011101001000000
            -89 callsubr
            hintmask 1011110001000000
            -93 callgsubr
            -1076 hlineto
            hintmask 1011100101000000
            -93 callsubr
            hintmask 1011110011000000
            -95 callsubr
            780 -91 -584 -73 callsubr
            -116 -39 rlineto
            24 callsubr
            101 hlineto
            return
          </CharString>
          <CharString index="61">
            hintmask 10010100
            147 32 rmoveto
            6 -32 rlineto
            390 hlineto
            1 55 rlineto
            hintmask 01010100
            -92 16 rlineto
            512 vlineto
            89 -10 rlineto
            hintmask 10100100
            16 -154 rlineto
            107 hlineto
            hintmask 10001100
            14 67 12 140 -4 46 rrcurveto
            -1 hlineto
            -289 -6 -94 0 -295 6 rrcurveto
            hintmask 10100100
            -5 -46 12 -140 15 -67 rrcurveto
            106 hlineto
            hintmask 10010100
            16 154 91 10 rlineto
            -495 vlineto
            -35 -17 -34 -18 -26 -21 rrcurveto
            return
          </CharString>
          <CharString index="62">
            24 -16 23 -29 -31 -14 -23 -24 -24 14 -23 31 29 16 23 24 vhcurveto
            return
          </CharString>
          <CharString index="63">
            -23 -9 -22 -11 -21 -13 1 -35 rcurveline
            357 hlineto
            1 49 -29 19 -31 14 -31 12 rlinecurve
            255 61 vlineto
            52 69 -1 56 rlineto
            -114 hlineto
            -74 160 59 -31 49 -35 42 -41 rlinecurve
            return
          </CharString>
          <CharString index="64">
            -99 426 56 hstem
            -32 619 vstem
            -32 426 rmoveto
            82 -53 118 -323 39 -10 34 -9 40 -9 rlinecurve
            -76 -30 -79 -26 -81 -22 103 -178 rcurveline
            167 89 79 98 55 139 39 101 28 108 27 101 16 8 16 9 12 10 -1 53 rcurveline
            -229 hlineto
            -14 -97 -20 -104 -19 -95 rrcurveto
            -16 hlineto
            -5 68 -61 228 rlineto
            -1 hlineto
            -253 hlineto
            return
          </CharString>
          <CharString index="65">
            373 callgsubr
            229 callgsubr
            -165 48 rlineto
            124 55 70 101 96 vvcurveto
            49 -18 59 -39 48 vhcurveto
            125 return
          </CharString>
          <CharString index="66">
            -186 -38 rlineto
            -16 12 -4 11 9 vvcurveto
            22 25 12 41 vhcurveto
            258 hlineto
            return
          </CharString>
          <CharString index="67">
            -29 277 callsubr
            -31 157 85 -48 callsubr
            hintmask 1011100110000000
            749 538 rmoveto
            hintmask 1011010110000000
            -89 callsubr
            hintmask 1011100110000000
            -93 callgsubr
            -749 hlineto
            hintmask 1011001110000000
            -93 callsubr
            hintmask 1101100110000000
            -25 callgsubr
            hintmask 1011100110000000
            34 callgsubr
            113 18 callsubr
            return
          </CharString>
          <CharString index="68">
            rmoveto
            150 -157 139 2 137 172 -81 70 -123 -143 -126 142 rlineto
            endchar
          </CharString>
          <CharString index="69">
            -16 -107 callgsubr
            return
          </CharString>
          <CharString index="70">
            339 callsubr
            -119 119 -119 143 -107 372 callsubr
            45 112 callsubr
            return
          </CharString>
          <CharString index="71">
            -23 -56 156 166 169 -169 404 -80 callsubr
            29 176 104 179 -30 170 hintmask 1010000101000000
            323 100 rmoveto
            -38 -36 9 18 -27 hvcurveto
            -11 17 -6 18 18 vvcurveto
            46 36 40 76 vhcurveto
            116 hlineto
            16 -21 9 -23 -23 vvcurveto
            -50 -46 -49 -89 vhcurveto
            hintmask 1101100110000000
            377 438 182 callsubr
            -700 138 callgsubr
            309 -103 -32 hlineto
            -172 -76 -93 -101 -150 169 -147 195 hvcurveto
            hintmask 1101100101000000
            145 90 82 111 hvcurveto
            hintmask 1101100110000000
            91 -61 85 -79 54 vhcurveto
            119 -104 callsubr
            return
          </CharString>
          <CharString index="72">
            -73 -64 hlineto
            -190 -59 -114 -93 return
          </CharString>
          <CharString index="73">
            -21 505 339 callsubr
            return
          </CharString>
          <CharString index="74">
            144 callsubr
            294 callsubr
            -62 26 callgsubr
            return
          </CharString>
          <CharString index="75">
            -18 callgsubr
            -93 -52 -69 -66 -54 35 -50 84 -59 vhcurveto
            67 51 return
          </CharString>
          <CharString index="76">
            -120 71 -65 50 71 vvcurveto
            55 38 31 43 return
          </CharString>
          <CharString index="77">
            vvcurveto
            -139 171 -118 125 18 18 3 4 16 vhcurveto
            45 -215 175 71 rlineto
            return
          </CharString>
          <CharString index="78">
            -92 callsubr
            206 -5 callsubr
            -85 callsubr
            return
          </CharString>
          <CharString index="79">
            87 14 -21 49 186 83 156 19 -107 callgsubr
            313 148 53 186 hintmask 1101100110000000
            -10 417 rmoveto
            -209 54 99 -166 159 hhcurveto
            107 52 75 79 hvcurveto
            hintmask 1110100110000000
            42 -15 39 -31 34 vhcurveto
            99 -182 hlineto
            -303 -181 116 -100 224 145 95 -49 -87 callsubr
            hintmask 1101100110000000
            515 7 callgsubr
            -810 341 callsubr
            514 -71 325 callsubr
            -7 -90 -75 hhcurveto
            -71 -30 80 148 -45 hvcurveto
            return
          </CharString>
          <CharString index="80">
            -13 -72 -59 -9 -56 hhcurveto
            -91 -62 23 80 -34 hvcurveto
            43 26 49 29 29 27 12 39 rlinecurve
            -118 16 133 -70 104 hhcurveto
            return
          </CharString>
          <CharString index="81">
            61 -217 -107 callsubr
            return
          </CharString>
          <CharString index="82">
            rmoveto
            -106 callsubr
            return
          </CharString>
          <CharString index="83">
            -83 206 -107 91 -206 -79 67 -184 rcurveline
            165 57 49 -44 61 -146 45 -108 rcurveline
            363 callsubr
            85 -153 95 58 64 24 76 -80 rlinecurve
            return
          </CharString>
          <CharString index="84">
            376 callsubr
            183 return
          </CharString>
          <CharString index="85">
            -193 rmoveto
            54 vlineto
            -136 113 rlineto
            -1 9 9 0 9 hhcurveto
            hintmask 10100000
            137 110 82 117 71 -40 53 -69 46 hvcurveto
            hintmask 11000000
            34 35 21 44 46 vvcurveto
            116 -132 111 -143 -74 -103 -30 -65 -72 vhcurveto
            108 -162 62 51 81 54 68 19 rlinecurve
            23 -16 12 -23 -22 vvcurveto
            -27 -17 -29 -33 -21 vhcurveto
            -6 2 -54 9 -88 -19 -43 -39 rlinecurve
            98 -155 rlineto
            hintmask 10100000
            147 56 rlineto
            34 -10 16 -18 -26 vvcurveto
            -50 -63 -40 -73 -20 -19 3 5 -20 vhcurveto
            -43 73 -56 -2 -66 -154 26 -23 47 -30 46 -19 rlinecurve
            184 -238 rlineto
            endchar
          </CharString>
          <CharString index="86">
            247 callsubr
            rlinecurve
            -1 callsubr
            return
          </CharString>
          <CharString index="87">
            87 2 -21 41 391 callgsubr
            29 -20 72 38 callgsubr
            45 186 hintmask 1101100110000000
            -10 407 224 callgsubr
            hvcurveto
            hintmask 1111100110000000
            45 -18 42 -35 37 vhcurveto
            98 -278 hlineto
            201 callgsubr
            -810 114 callgsubr
            hintmask 1111100110000000
            -95 callsubr
            514 -81 -318 -73 callsubr
            return
          </CharString>
          <CharString index="88">
            -211 55 98 -174 164 hhcurveto
            110 52 78 77 212 callsubr
            hvcurveto
            return
          </CharString>
          <CharString index="89">
            -82 callsubr
            18 return
          </CharString>
          <CharString index="90">
            97 -44 vhcurveto
            -60 -53 -82 -42 -101 hhcurveto
            -15 -9 1 3 -13 hvcurveto
            -6 6 -4 13 11 vvcurveto
            40 54 29 69 -29 vhcurveto
            return
          </CharString>
          <CharString index="91">
            63 57 39 69 20 21 -3 -7 21 vhcurveto
            -15 -30 -43 -45 -45 -35 148 -102 rcurveline
            60 39 36 54 64 vvcurveto
            124 -132 82 -140 return
          </CharString>
          <CharString index="92">
            -89 callgsubr
            244 147 hstemhm
            33 162 -125 -77 callgsubr
            -120 hlineto
            -1 4 0 5 6 vvcurveto
            144 224 85 371 380 525 -89 -126 556 vhcurveto
            30 97 rlineto
            209 -825 -504 56 -299 hhcurveto
            hintmask 11101100
            -445 -175 -124 -144 -32 9 -40 36 -51 hvcurveto
            -118 -61 callsubr
            70 -99 callgsubr
            endchar
          </CharString>
          <CharString index="93">
            -95 callsubr
            409 357 callgsubr
            -60 -58 -34 -52 -70 hvcurveto
            113 -173 384 callgsubr
            18 19 -8 -18 21 hvcurveto
            -240 -156 123 callgsubr
            return
          </CharString>
          <CharString index="94">
            hintmask 10101000
            -89 callsubr
            hintmask 11001000
            -93 callgsubr
            return
          </CharString>
          <CharString index="95">
            154 -7 -107 callgsubr
            return
          </CharString>
          <CharString index="96">
            145 -38 callsubr
            return
          </CharString>
          <CharString index="97">
            -78 -13 -57 -43 -63 hhcurveto
            -56 -59 34 85 -41 hvcurveto
            -83 -66 rlineto
            -138 54 123 -69 106 hhcurveto
            120 89 89 112 19 hvcurveto
            -176 93 rmoveto
            -22 29 -46 42 -40 16 -34 -20 -35 -47 -22 -43 24 -33 53 -40 36 -14 34 23 37 47 15 40 rrcurveto
            endchar
          </CharString>
          <CharString index="98">
            -104 callsubr
            186 hlineto
            -85 callsubr
            -296 hlineto
            return
          </CharString>
          <CharString index="99">
            rmoveto
            124 115 141 -110 60 57 -133 162 rlineto
            -127 hlineto
            -136 -170 rlineto
            endchar
          </CharString>
          <CharString index="100">
            -70 callgsubr
            -127 44 callsubr
            -79 -76 -52 -94 -17 hvcurveto
            hintmask 11100111
            121 -99 -115 80 -134 hhcurveto
            -139 -100 -87 -117 -65 31 -68 66 -53 hvcurveto
            74 37 rlineto
            -9 20 -4 21 17 vvcurveto
            58 50 67 89 70 95 -42 -184 120 vhcurveto
            -91 43 callgsubr
          </CharString>
          <CharString index="101">
            -141 169 -87 111 12 11 1 2 11 vhcurveto
            108 callgsubr
            return
          </CharString>
          <CharString index="102">
            -515 hlineto
            -102 callgsubr
            return
          </CharString>
          <CharString index="103">
            rmoveto
            -25 -22 10 25 -25 hvcurveto
            31 50 36 62 45 75 rrcurveto
            36 -26 16 -41 -40 vvcurveto
            -59 -35 -56 -57 vhcurveto
            -312 -26 rmoveto
            -31 27 -15 51 34 vvcurveto
            51 33 62 59 return
          </CharString>
          <CharString index="104">
            74 0 100 462 112 -97 97 -8 -20 213 callgsubr
            215 217 hintmask 10011100
            37 666 rmoveto
            -1 -55 71 -12 rlineto
            -515 402 callgsubr
            362 hlineto
            242 117 163 176 hvcurveto
            hintmask 10101100
            160 -120 175 -247 vhcurveto
            hintmask 10011100
            -117 -111 -2 -6 -117 hvcurveto
            339 -566 rmoveto
            -18 -20 3 7 -21 hvcurveto
            hintmask 11001100
            452 vlineto
            hintmask 10101100
            107 15 rlineto
            68 -47 40 -104 -99 vvcurveto
            hintmask 10011100
            -110 -49 -117 -107 vhcurveto
            return
          </CharString>
          <CharString index="105">
            -70 callgsubr
            -125 44 callsubr
            -73 -69 -44 -80 -24 hvcurveto
            hintmask 11100111
            97 -75 -92 67 -115 hhcurveto
            -131 -83 -85 -105 -64 31 -69 67 -52 hvcurveto
            74 37 rlineto
            -14 23 -6 22 20 vvcurveto
            52 44 51 70 78 69 -73 -138 77 vhcurveto
            -98 43 callgsubr
          </CharString>
          <CharString index="106">
            -42 callsubr
            -90 callgsubr
            return
          </CharString>
          <CharString index="107">
            hlineto
            -7 -18 -4 -20 -19 vvcurveto
            -91 88 -74 121 -33 vhcurveto
            -23 -16 -26 -13 -28 -11 return
          </CharString>
          <CharString index="108">
            -193 -11 rmoveto
            -37 -11 -37 -17 -10 vhcurveto
            -53 -12 -24 50 55 vvcurveto
            37 9 44 14 9 vhcurveto
            53 16 29 -61 -54 vvcurveto
            -53 -429 rmoveto
            -60 -52 18 42 11 5 12 10 13 hvcurveto
            93 -11 86 -16 64 -22 rrcurveto
            -30 -28 -62 -17 -56 hhcurveto
            return
          </CharString>
          <CharString index="109">
            -2 -65 43 -52 101 -41 72 -1 rlinecurve
            return
          </CharString>
          <CharString index="110">
            58 callsubr
            -66 14 -56 -7 -43 -21 rlinecurve
            -9 13 -6 16 17 vvcurveto
            45 39 25 43 -8 244 callsubr
            return
          </CharString>
          <CharString index="111">
            147 40 50 90 76 vvcurveto
            45 callgsubr
            return
          </CharString>
          <CharString index="112">
            -9 -107 callgsubr
            return
          </CharString>
          <CharString index="113">
            336 hmoveto
            95 callsubr
            358 vlineto
            -59 53 -76 callsubr
            return
          </CharString>
          <CharString index="114">
            hvcurveto
            -41 callsubr
            return
          </CharString>
          <CharString index="115">
            2 161 callsubr
            return
          </CharString>
          <CharString index="116">
            -87 callsubr
            -103 callsubr
            186 hlineto
            hintmask 0101010011000000
            -89 callsubr
            hintmask 0101100011000000
            -93 callgsubr
            -840 hlineto
            hintmask 0101001011000000
            -93 callsubr
            hintmask 0110100111000000
            -95 callsubr
            544 -74 hlineto
            -72 -69 -24 -49 -50 hvcurveto
            -99 81 rlineto
            7 -18 -21 3 -20 hhcurveto
            -86 -97 -59 -123 -103 67 -101 149 -97 hvcurveto
            114 71 rlineto
            -88 56 -47 46 60 251 callsubr
          </CharString>
          <CharString index="117">
            rmoveto
            25 -86 120 -110 86 -25 65 37 rcurveline
            return
          </CharString>
          <CharString index="118">
            9 -24 -17 8 -34 hhcurveto
            -119 -89 -99 -133 -149 111 -125 134 67 42 31 71 50 hvcurveto
            72 -75 rlineto
            -19 34 43 -8 34 hhcurveto
            return
          </CharString>
          <CharString index="119">
            10 callsubr
            86 return
          </CharString>
          <CharString index="120">
            -50 rmoveto
            100 67 78 92 63 -32 58 -45 57 hvcurveto
            -9 12 -11 12 -11 13 82 89 96 98 24 24 rrcurveto
            hintmask 11011000
            -127 120 -68 -67 -72 -75 -57 -64 rlinecurve
            hintmask 10111000
            -103 96 -107 87 -28 24 -86 -103 rcurveline
            57 -49 94 -82 82 -79 rrcurveto
            -55 -71 -33 -59 -60 vvcurveto
            -118 131 -96 111 vhcurveto
            -83 176 rmoveto
            27 15 29 34 44 vhcurveto
            35 -46 7 -23 -19 vvcurveto
            -43 -34 -28 -46 21 vhcurveto
            -8 12 -3 14 12 vvcurveto
            endchar
          </CharString>
          <CharString index="121">
            -20 42 53 56 106 -12 25 49 rcurveline
            return
          </CharString>
          <CharString index="122">
            72 132 return
          </CharString>
          <CharString index="123">
            -113 -39 11 -81 -47 -23 -55 -8 -52 24 rlinecurve
            -15 20 -8 23 22 vvcurveto
            49 39 46 88 vhcurveto
            183 hlineto
            return
          </CharString>
          <CharString index="124">
            -59 54 -80 -4 -75 -13 -64 -22 rlinecurve
            2 -50 75 -19 rlineto
            return
          </CharString>
          <CharString index="125">
            -104 callsubr
            hintmask 1101100110000000
            -185 -263 -91 callgsubr
            return
          </CharString>
          <CharString index="126">
            rmoveto
            29 30 -8 -16 32 hvcurveto
            4 -39 -12 -32 -21 -24 -81 118 rcurveline
            1 6 6 0 7 hhcurveto
            -50 -169 332 callgsubr
            -28 41 7 54 35 33 89 -127 rcurveline
            -7 -18 -19 -4 -18 hhcurveto
            return
          </CharString>
          <CharString index="127">
            436 rmoveto
            -50 43 13 95 78 -5 rrcurveto
            20 -21 4 -28 -13 vvcurveto
            -41 -36 -42 -63 -49 vhcurveto
            -119 -92 10 -78 rlineto
            hintmask 11110000
            133 -95 rlineto
            31 -22 24 -19 -28 vvcurveto
            -24 -16 -23 -9 -11 vhcurveto
            176 -69 rlineto
            18 19 22 39 40 vvcurveto
            54 -41 37 -63 44 vhcurveto
            -71 50 50 42 rlineto
            hintmask 11101000
            75 62 41 62 66 vvcurveto
            104 -101 161 -158 -112 -51 -81 -65 -55 37 -55 94 -51 vhcurveto
            endchar
          </CharString>
          <CharString index="128">
            429 132 rmoveto
            32 19 17 17 14 13 -11 -24 -29 -20 -23 -29 -15 vhcurveto
            -10 20 -4 18 15 vvcurveto
            return
          </CharString>
          <CharString index="129">
            rmoveto
            28 30 -8 -15 31 hvcurveto
            -69 vlineto
            -7 -11 -8 -10 -10 -8 -83 120 rcurveline
            1 6 6 0 7 hhcurveto
            -98 -159 rmoveto
            -28 41 7 54 35 33 87 -124 rcurveline
            -35 -12 -37 -2 -29 10 rrcurveto
            endchar
          </CharString>
          <CharString index="130">
            293 12 callsubr
            return
          </CharString>
          <CharString index="131">
            -211 55 98 -174 164 hhcurveto
            54 40 19 29 27 hvcurveto
            -31 40 46 -17 54 hhcurveto
            110 57 73 78 45 -19 44 -37 39 hvcurveto
            return
          </CharString>
          <CharString index="132">
            8 299 rmoveto
            28 -86 117 -100 86 -25 65 37 rcurveline
            249 callgsubr
            return
          </CharString>
          <CharString index="133">
            -20 72 57 callsubr
            return
          </CharString>
          <CharString index="134">
            14 callsubr
            -72 119 return
          </CharString>
          <CharString index="135">
            55 -44 -53 26 -58 hhcurveto
            -54 -51 -15 -29 -39 hvcurveto
            -103 84 165 callsubr
            4 5 0 -1 4 vhcurveto
            -14 -31 -6 -38 4 -44 259 callsubr
            98 -17 52 53 58 hhcurveto
            20 20 -7 -13 19 hvcurveto
            31 -84 114 -102 82 -24 rrcurveto
            return
          </CharString>
          <CharString index="136">
            hintmask 1101100101000000
            679 538 253 callgsubr
            -679 hlineto
            hintmask 1101001101000000
            -93 callsubr
            hintmask 1110100101000000
            -95 callsubr
            347 -35 callsubr
            return
          </CharString>
          <CharString index="137">
            -131 rmoveto
            77 61 rlineto
            47 vlineto
            -170 69 125 116 55 216 -9 215 rlinecurve
            -167 43 -2 -90 -6 -105 -21 -95 rlinecurve
            -31 -29 -44 -11 -51 20 -5 60 20 113 42 122 -174 61 rcurveline
            -44 -97 -10 -98 -44 vvcurveto
            -154 126 -92 101 -27 vhcurveto
            -13 -20 -16 -18 -17 -16 -72 45 rcurveline
            -52 -21 -18 -170 52 -21 80 5 50 17 rlinecurve
            endchar
          </CharString>
          <CharString index="138">
            -151 -65 -87 -91 -140 153 -100 142 76 86 29 65 56 hvcurveto
            -87 132 -72 -63 -122 -29 -64 23 rlinecurve
            -10 13 -4 16 12 vvcurveto
            38 43 31 62 vhcurveto
            156 169 hlineto
            return
          </CharString>
          <CharString index="139">
            rmoveto
            153 116 161 -116 64 62 -157 175 rlineto
            -131 hlineto
            -158 -175 rlineto
            return
          </CharString>
          <CharString index="140">
            rmoveto
            -13 11 -3 16 10 vvcurveto
            18 10 18 16 17 vhcurveto
            91 -57 rlineto
            -21 -29 -35 -12 -37 hhcurveto
            140 72 rmoveto
            -84 52 32 17 39 11 38 -2 rlinecurve
            1 -27 -9 -28 -17 -23 rrcurveto
            endchar
          </CharString>
          <CharString index="141">
            55 -8 -15 -77 -60 -93 60 -47 rcurveline
            121 95 58 137 -76 109 -143 -61 rcurveline
            endchar
          </CharString>
          <CharString index="142">
            -33 139 rlineto
            -90 hlineto
            -60 -137 -34 -23 -30 -23 -26 -24 rlinecurve
            1 -56 rlineto
            78 -251 hlineto
            return
          </CharString>
          <CharString index="143">
            70 50 47 60 27 29 -9 -21 27 vhcurveto
            25 86 rlineto
            54 -41 -58 26 -56 hhcurveto
            return
          </CharString>
          <CharString index="144">
            rrcurveto
            5 callgsubr
            return
          </CharString>
          <CharString index="145">
            rmoveto
            -157 197 -120 -106 60 -48 63 -65 56 -54 rlinecurve
            endchar
          </CharString>
          <CharString index="146">
            -83 callgsubr
            -21 -56 return
          </CharString>
          <CharString index="147">
            -95 callsubr
            392 -45 -180 208 callgsubr
            return
          </CharString>
          <CharString index="148">
            3 9 1 9 1 rrcurveto
            46 3 24 -36 -55 vvcurveto
            -281 return
          </CharString>
          <CharString index="149">
            -6 -33 26 -20 31 -17 33 -16 rlinecurve
            -117 vlineto
            -16 -1 -16 -1 -15 1 rrcurveto
            -125 7 -58 120 125 vvcurveto
            87 26 89 54 53 vhcurveto
            55 -1 46 -9 40 -12 rrcurveto
            return
          </CharString>
          <CharString index="150">
            -83 -76 -146 -30 -71 31 rrcurveto
            -12 16 -5 16 14 vvcurveto
            43 46 34 88 vhcurveto
            179 hlineto
            return
          </CharString>
          <CharString index="151">
            hlineto
            -17 32 -7 30 26 vvcurveto
            hintmask 11101001
            36 callsubr
            return
          </CharString>
          <CharString index="152">
            23 -25 callsubr
            return
          </CharString>
          <CharString index="153">
            264 callsubr
            134 callgsubr
            -610 112 callgsubr
            434 -631 -101 callgsubr
          </CharString>
          <CharString index="154">
            101 callsubr
            hintmask 0111001111000000
            -5 callgsubr
            -167 -110 77 vlineto
            hintmask 0111010111000000
            -32 callsubr
            -55 49 25 69 55 -2 rlinecurve
            70 callgsubr
            -129 -76 vlineto
            endchar
          </CharString>
          <CharString index="155">
            -24 -6 -32 -14 -17 -12 3 -15 rcurveline
            70 151 rmoveto
            -21 vlineto
            -64 -1 78 104 rlineto
            endchar
          </CharString>
          <CharString index="156">
            382 283 rmoveto
            -58 -51 92 -123 rlineto
            91 44 61 44 134 vvcurveto
            155 -104 callsubr
            168 hlineto
            return
          </CharString>
          <CharString index="157">
            -31 callsubr
            3 4 0 -1 3 vhcurveto
            -11 -34 -5 -38 3 -41 138 -83 rcurveline
            return
          </CharString>
          <CharString index="158">
            vvcurveto
            -116 144 -85 114 21 19 3 5 17 vhcurveto
            -30 302 callgsubr
            return
          </CharString>
          <CharString index="159">
            162 5 callsubr
            return
          </CharString>
          <CharString index="160">
            24 117 rmoveto
            -71 72 -78 123 20 vhcurveto
            return
          </CharString>
          <CharString index="161">
            rmoveto
            -38 51 -25 28 49 vvcurveto
            hintmask 01100000
            63 callgsubr
            hintmask 10100000
            102 callgsubr
            rrcurveto
            hintmask 01100000
            63 -112 3 -9 4 -9 3 -10 rlinecurve
            82 hlineto
            endchar
          </CharString>
          <CharString index="162">
            93 callsubr
            -98 -64 -68 -81 -64 40 -60 70 return
          </CharString>
          <CharString index="163">
            rmoveto
            -7 hlineto
            3 -54 rlineto
            33 hlineto
            34 18 -21 -22 -14 -8 -15 -18 -8 hvcurveto
            -33 17 -43 33 -37 33 -26 -109 rcurveline
            -19 41 53 -8 41 hhcurveto
            76 75 30 68 return
          </CharString>
          <CharString index="164">
            132 -102 102 -102 126 -73 49 hstemhm
            return
          </CharString>
          <CharString index="165">
            -5 callgsubr
            -233 vlineto
            -32 -60 -101 -55 -66 15 27 callsubr
            return
          </CharString>
          <CharString index="166">
            226 291 rmoveto
            106 86 rlineto
            24 -16 13 -28 -28 vvcurveto
            -46 -33 -47 -68 -75 -55 57 133 -78 vhcurveto
            -92 -62 rlineto
            -245 129 146 -46 84 hhcurveto
            return
          </CharString>
          <CharString index="167">
            rmoveto
            58 48 43 43 -31 vhcurveto
            7 -38 -30 -44 -54 -39 rrcurveto
            -9 15 -5 17 19 vvcurveto
            return
          </CharString>
          <CharString index="168">
            46 26 40 34 vhcurveto
            11 -36 rlineto
            -94 -34 -71 -68 -80 vvcurveto
            -103 116 -86 120 63 57 23 44 47 vhcurveto
            -66 137 rlineto
            -31 -39 -72 -38 -43 hhcurveto
            -20 -14 8 19 46 86 40 66 13 hvcurveto
            109 vlineto
            110 callsubr
            -113 -39 13 -96 rlineto
            return
          </CharString>
          <CharString index="169">
            -122 -282 rmoveto
            -15 -15 2 5 -12 hvcurveto
            203 vlineto
            117 -184 rlineto
            -18 -20 -26 -8 -29 hhcurveto
            return
          </CharString>
          <CharString index="170">
            100 callgsubr
            endchar
          </CharString>
          <CharString index="171">
            rmoveto
            32 -53 -61 17 -47 hhcurveto
            -120 -97 -100 -125 hvcurveto
            -68 vlineto
            return
          </CharString>
          <CharString index="172">
            -9 14 -8 15 -7 15 rrcurveto
            104 25 43 58 219 callgsubr
            return
          </CharString>
          <CharString index="173">
            rmoveto
            54 43 62 53 58 41 -99 96 rcurveline
            -155 -162 rlineto
            299 -89 rmoveto
            54 44 62 52 58 41 -99 96 rcurveline
            -155 -162 rlineto
            endchar
          </CharString>
          <CharString index="174">
            hintmask 11010100
            -89 callsubr
            hintmask 11100100
            -93 callgsubr
            return
          </CharString>
          <CharString index="175">
            89 -2 25 -10 17 vhcurveto
            -41 64 -74 11 -39 -2 return
          </CharString>
          <CharString index="176">
            -26 -17 -27 -17 -26 -18 1 -56 rcurveline
            78 return
          </CharString>
          <CharString index="177">
            -87 callsubr
            -103 callsubr
            186 hlineto
            hintmask 0111010110000000
            -89 callsubr
            hintmask 0111100110000000
            -93 callgsubr
            -757 hlineto
            hintmask 0111001110000000
            -93 callsubr
            hintmask 0111100110000000
            228 callsubr
            7 -177 rlineto
            -76 hlineto
            255 125 15 callgsubr
            233 -177 -157 hlineto
            endchar
          </CharString>
          <CharString index="178">
            -81 14 35 93 rlineto
            204 hlineto
            hintmask 10110000
            31 -83 -28 -14 -25 -16 -22 -17 232 callsubr
            362 hlineto
            1 55 -71 12 -250 623 rlineto
            return
          </CharString>
          <CharString index="179">
            215 callsubr
            101 78 54 61 47 hvcurveto
            -97 155 -49 -76 -101 -55 -96 -5 rlinecurve
            65 callsubr
            return
          </CharString>
          <CharString index="180">
            14 -16 7 -19 -16 vvcurveto
            -46 -59 -70 -96 -19 vhcurveto
            -47 50 -50 -9 -56 -166 32 -21 60 -16 52 -5 rlinecurve
            248 -169 79 59 rlineto
            return
          </CharString>
          <CharString index="181">
            -86 240 -107 112 -222 -85 rlinecurve
            67 -184 165 57 49 -44 61 -146 rlinecurve
            45 return
          </CharString>
          <CharString index="182">
            156 274 95 callgsubr
            62 157 158 166 return
          </CharString>
          <CharString index="183">
            -45 -21 -55 -5 -56 24 rrcurveto
            176 callgsubr
            return
          </CharString>
          <CharString index="184">
            -194 -42 rlineto
            -14 9 -9 14 12 vvcurveto
            17 16 13 43 vhcurveto
            return
          </CharString>
          <CharString index="185">
            133 -104 callsubr
            203 hlineto
            return
          </CharString>
          <CharString index="186">
            184 callsubr
            hintmask 10110000
            353 hmoveto
            1 65 callgsubr
            595 vlineto
            17 callsubr
            hintmask 01110000
            -557 vlineto
            hintmask 10110000
            -26 -10 -34 callgsubr
            return
          </CharString>
          <CharString index="187">
            -10 -19 -5 -22 -23 133 callsubr
            return
          </CharString>
          <CharString index="188">
            -32 callgsubr
            54 vlineto
            return
          </CharString>
          <CharString index="189">
            126 2 -21 229 149 127 107 callsubr
            174 186 hintmask 11110011
            849 252 callsubr
            -859 286 callsubr
            196 return
          </CharString>
          <CharString index="190">
            -31 callgsubr
            271 -187 hlineto
            -102 callgsubr
            return
          </CharString>
          <CharString index="191">
            -74 108 rlineto
            -105 hlineto
            -112 -48 -66 -65 -63 45 -60 76 -45 hvcurveto
            return
          </CharString>
          <CharString index="192">
            -56 -96 callgsubr
            return
          </CharString>
          <CharString index="193">
            hintmask 11101011
            -89 callsubr
            hintmask 11110011
            -93 callgsubr
            return
          </CharString>
          <CharString index="194">
            -64 65 -42 43 52 vvcurveto
            52 42 29 55 return
          </CharString>
          <CharString index="195">
            -75 -67 rlineto
            -150 101 131 -74 122 hhcurveto
            132 77 88 91 71 -48 90 -114 32 hvcurveto
            -176 -40 rlineto
            -13 9 -7 12 13 vvcurveto
            14 9 14 17 10 vhcurveto
            -12 36 35 -5 35 hhcurveto
            140 96 91 96 303 callgsubr
            hvcurveto
            return
          </CharString>
          <CharString index="196">
            hlineto
            -60 callgsubr
            return
          </CharString>
          <CharString index="197">
            rmoveto
            -136 hlineto
            68 185 rlineto
            endchar
          </CharString>
          <CharString index="198">
            318 358 rmoveto
            33 36 -11 -21 37 hvcurveto
            7 -42 -16 -32 -28 -23 -88 128 rcurveline
            1 6 6 0 7 hhcurveto
            -49 -169 rmoveto
            -19 -16 3 7 -14 hvcurveto
            -28 41 7 54 35 33 91 -130 rcurveline
            -5 -19 -19 -3 -18 hhcurveto
            15 309 rmoveto
            return
          </CharString>
          <CharString index="199">
            170 -112 139 -139 323 -132 239 callsubr
            154 160 return
          </CharString>
          <CharString index="200">
            -43 -18 rrcurveto
            -53 callsubr
            return
          </CharString>
          <CharString index="201">
            -75 75 -41 48 48 vvcurveto
            42 31 31 61 vhcurveto
            91 -256 hlineto
            -106 callsubr
            return
          </CharString>
          <CharString index="202">
            1 49 -18 13 -18 12 -19 10 rlinecurve
            return
          </CharString>
          <CharString index="203">
            rlinecurve
            -8 13 -5 15 15 vvcurveto
            40 34 40 93 vhcurveto
            183 hlineto
            25 49 -79 124 rlineto
            -189 hlineto
            hintmask 1110101010000000
            -37 -32 -5 -7 -27 hvcurveto
            -11 12 -5 13 11 vvcurveto
            22 19 22 37 vhcurveto
            293 hlineto
            hintmask 1101100110000000
            157 -104 callsubr
            return
          </CharString>
          <CharString index="204">
            668 rmoveto
            -192 -235 rlineto
            -60 -74 -24 -67 -54 vvcurveto
            -128 135 -144 142 85 73 51 91 55 vhcurveto
            -113 127 rlineto
            -78 -55 -50 -31 -42 hhcurveto
            -42 -28 31 40 30 16 30 58 70 hvcurveto
            163 196 rlineto
            endchar
          </CharString>
          <CharString index="205">
            652 rmoveto
            6 -84 rlineto
            314 hlineto
            hintmask 01100000
            47 50 rlineto
            hintmask 10100000
            103 callgsubr
          </CharString>
          <CharString index="206">
            -12 callgsubr
            354 callsubr
            return
          </CharString>
          <CharString index="207">
            hlineto
            -122 -100 -87 -127 hvcurveto
            -65 226 callsubr
            return
          </CharString>
          <CharString index="208">
            -87 callsubr
            2 callgsubr
            return
          </CharString>
          <CharString index="209">
            -51 -35 -27 -48 -60 vvcurveto
            -147 164 -114 162 86 89 32 81 77 vhcurveto
            return
          </CharString>
          <CharString index="210">
            -38 -54 -69 -33 -70 7 rrcurveto
            endchar
          </CharString>
          <CharString index="211">
            152 callgsubr
            378 281 -104 136 -21 -24 -29 -26 -33 -22 rlinecurve
            -49 -32 -58 -22 -49 9 27 callsubr
            return
          </CharString>
          <CharString index="212">
            516 331 rmoveto
            28 -8 26 -15 24 vhcurveto
            28 9 31 1 35 -6 -31 154 rcurveline
            -82 -2 -43 -39 -17 -50 rrcurveto
            return
          </CharString>
          <CharString index="213">
            132 -111 111 406 callsubr
            -72 49 hstemhm
            return
          </CharString>
          <CharString index="214">
            -107 callgsubr
            186 193 return
          </CharString>
          <CharString index="215">
            -95 callsubr
            337 -45 -130 208 callgsubr
            -45 28 -51 54 -42 hvcurveto
            -41 -30 -25 -44 -55 vvcurveto
            -181 233 -104 175 callgsubr
            -152 26 102 vvcurveto
            63 61 16 69 vhcurveto
            return
          </CharString>
          <CharString index="216">
            -82 callsubr
            30 197 return
          </CharString>
          <CharString index="217">
            -117 275 32 20 30 29 19 34 rlinecurve
            -124 168 return
          </CharString>
          <CharString index="218">
            hlineto
            hintmask 11001100
            -93 callsubr
            hintmask 11100100
            -95 callsubr
            return
          </CharString>
          <CharString index="219">
            170 -130 153 107 133 return
          </CharString>
          <CharString index="220">
            555 -104 callsubr
            186 hlineto
            return
          </CharString>
          <CharString index="221">
            339 callsubr
            -49 49 hstemhm
            return
          </CharString>
          <CharString index="222">
            88 -55 -59 72 -101 hhcurveto
            return
          </CharString>
          <CharString index="223">
            328 358 rmoveto
            28 30 -8 -15 31 hvcurveto
            -69 vlineto
            -7 -11 -8 -9 -10 -9 -83 120 rcurveline
            1 6 6 0 7 hhcurveto
            -98 -159 rmoveto
            -28 41 7 54 35 33 87 -125 rcurveline
            -37 -13 -38 -2 -26 12 rrcurveto
            return
          </CharString>
          <CharString index="224">
            rmoveto
            -105 -65 rlineto
            -6 6 -2 9 9 vvcurveto
            36 34 44 51 64 49 -69 -142 100 vhcurveto
            80 65 rlineto
            134 -90 -93 150 -142 hhcurveto
            -97 -79 -70 -89 -100 101 -82 94 46 41 19 44 40 hvcurveto
            endchar
          </CharString>
          <CharString index="225">
            19 -38 -48 11 -56 hhcurveto
            -161 -86 -93 -87 -61 41 -65 91 -29 hvcurveto
            -43 -25 -38 -31 -37 -37 22 -82 rcurveline
            return
          </CharString>
          <CharString index="226">
            -5 callgsubr
            -247 vlineto
            -43 -56 -96 -44 -60 14 27 callsubr
            return
          </CharString>
          <CharString index="227">
            -95 callsubr
            137 197 callgsubr
            -9 4 -9 4 -9 rlinecurve
            -53 -63 -89 -45 -86 -4 129 callgsubr
            return
          </CharString>
          <CharString index="228">
            rmoveto
            93 88 rlineto
            10 -15 6 -16 -16 vvcurveto
            -40 -35 -36 -51 -64 -64 58 105 -97 vhcurveto
            -70 -73 rlineto
            -132 106 116 -85 110 hhcurveto
            97 74 69 89 97 -88 95 -96 -59 -56 -36 -55 -32 hvcurveto
            endchar
          </CharString>
          <CharString index="229">
            -7 16 -4 15 169 callsubr
            return
          </CharString>
          <CharString index="230">
            -68 65 -59 96 12 vhcurveto
            129 70 -25 55 rlineto
            -75 -45 -56 18 53 vvcurveto
            return
          </CharString>
          <CharString index="231">
            238 476 rmoveto
            63 66 37 41 -46 vhcurveto
            -44 return
          </CharString>
          <CharString index="232">
            156 125 37 callgsubr
            157 186 hintmask 0111100110000000
            13 303 rmoveto
            25 -86 115 -100 86 -25 65 40 rcurveline
            73 157 return
          </CharString>
          <CharString index="233">
            76 callgsubr
            -53 -11 return
          </CharString>
          <CharString index="234">
            173 callsubr
            -46 -20 vhcurveto
            return
          </CharString>
          <CharString index="235">
            92 -89 107 -124 -75 -62 -39 -74 -19 4 -22 11 -25 return
          </CharString>
          <CharString index="236">
            86 -40 81 -60 50 vhcurveto
            33 -104 callsubr
            242 hlineto
            return
          </CharString>
          <CharString index="237">
            -1 4 -1 4 4 156 callsubr
            303 hlineto
            return
          </CharString>
          <CharString index="238">
            -13 rlineto
            -514 vlineto
            return
          </CharString>
          <CharString index="239">
            hlineto
            -18 402 -354 -248 -34 242 -104 -10 rcurveline
            -409 353 187 43 -164 vhcurveto
            return
          </CharString>
          <CharString index="240">
            vvcurveto
            -116 138 -113 171 206 147 163 165 return
          </CharString>
          <CharString index="241">
            21 -107 callgsubr
            return
          </CharString>
          <CharString index="242">
            0 55 -55 70 -70 84 return
          </CharString>
          <CharString index="243">
            25 49 -75 83 rlineto
            -654 hlineto
            hintmask 1110010110000000
            -93 callsubr
            hintmask 1110100110000000
            -95 callsubr
            364 -55 -170 313 callgsubr
            -57 -66 -50 32 -56 61 -45 hvcurveto
            -49 -41 -16 -58 -43 vvcurveto
            return
          </CharString>
          <CharString index="244">
            rlinecurve
            -124 168 -113 -39 320 callgsubr
            return
          </CharString>
          <CharString index="245">
            rmoveto
            -13 callsubr
            return
          </CharString>
          <CharString index="246">
            11 callgsubr
            147 callsubr
            return
          </CharString>
          <CharString index="247">
            175 41 186 return
          </CharString>
          <CharString index="248">
            40 callsubr
            -44 26 -49 52 -42 hvcurveto
            -36 -37 -21 -50 -56 vvcurveto
            -176 201 -158 231 -29 vhcurveto
            35 113 rlineto
            -183 return
          </CharString>
          <CharString index="249">
            rmoveto
            23 15 11 14 14 12 -12 -15 -18 -18 -15 -27 -10 vhcurveto
            -7 13 -3 12 11 vvcurveto
            endchar
          </CharString>
          <CharString index="250">
            55 -55 71 348 248 -89 89 -89 94 hstemhm
            242 210 return
          </CharString>
          <CharString index="251">
            87 callsubr
            28 32 -8 -16 32 vhcurveto
            return
          </CharString>
          <CharString index="252">
            31 -23 -30 14 -29 hhcurveto
            -51 -47 -41 -60 -86 96 -61 27 -17 hvcurveto
            49 47 rlineto
            -45 33 -26 24 33 vvcurveto
            24 14 11 16 7 8 -2 -5 7 vhcurveto
            -7 -24 -3 -25 1 -24 return
          </CharString>
          <CharString index="253">
            161 callsubr
            289 -107 callgsubr
            188 3 callgsubr
            return
          </CharString>
          <CharString index="254">
            68 -104 callsubr
            return
          </CharString>
          <CharString index="255">
            rmoveto
            -13 11 -3 13 11 vvcurveto
            54 84 62 83 -4 vhcurveto
            -1 -78 -83 -70 -67 1 rrcurveto
            endchar
          </CharString>
          <CharString index="256">
            365 callsubr
            -113 133 -89 120 64 234 callsubr
            return
          </CharString>
          <CharString index="257">
            505 7 callgsubr
            return
          </CharString>
          <CharString index="258">
            rrcurveto
            364 callgsubr
            -54 vlineto
            132 -69 54 27 rlineto
            return
          </CharString>
          <CharString index="259">
            45 callgsubr
            -88 -56 -64 -61 -48 33 -51 74 -51 vhcurveto
            69 42 rlineto
            return
          </CharString>
          <CharString index="260">
            rmoveto
            -25 -2 -22 -5 -19 vhcurveto
            -117 184 rlineto
            124 hlineto
            return
          </CharString>
          <CharString index="261">
            -20 72 109 callsubr
            return
          </CharString>
          <CharString index="262">
            rmoveto
            591 618 -71 70 -592 -620 rlineto
            return
          </CharString>
          <CharString index="263">
            vvcurveto
            22 19 17 37 vhcurveto
            return
          </CharString>
          <CharString index="264">
            100 64 rlineto
            25 -14 13 -27 -25 vvcurveto
            -43 -35 -48 -67 -89 -59 84 121 -57 vhcurveto
            -96 -52 rlineto
            -249 111 127 -63 112 hhcurveto
            138 81 97 106 return
          </CharString>
          <CharString index="265">
            437 165 rmoveto
            34 22 16 17 12 14 -9 -22 -27 -21 -22 -33 -14 vhcurveto
            -8 16 -3 14 14 vvcurveto
            262 373 -70 callgsubr
            -699 hlineto
            return
          </CharString>
          <CharString index="266">
            hlineto
            11 -39 33 -40 58 -40 69 42 rcurveline
            return
          </CharString>
          <CharString index="267">
            52 -82 callsubr
            return
          </CharString>
          <CharString index="268">
            -21 82 134 return
          </CharString>
          <CharString index="269">
            -24 31 -10 30 26 vvcurveto
            45 30 36 57 16 29 -3 -22 25 vhcurveto
            25 86 rlineto
            37 -31 -47 31 -63 hhcurveto
            -89 -59 -63 -76 -55 31 -62 75 -50 hvcurveto
            endchar
          </CharString>
          <CharString index="270">
            -95 callsubr
            347 -35 callsubr
            -95 61 -79 80 -51 hvcurveto
            return
          </CharString>
          <CharString index="271">
            -72 -73 -129 -51 -84 28 rrcurveto
            -11 15 -3 10 13 vvcurveto
            71 86 -11 84 33 vhcurveto
            return
          </CharString>
          <CharString index="272">
            rlineto
            -45 callgsubr
            return
          </CharString>
          <CharString index="273">
            335 callgsubr
            69 hlineto
            -3 -13 -2 -14 -15 vvcurveto
            -101 74 -106 259 callgsubr
            -60 60 -36 61 45 vvcurveto
            41 31 37 61 vhcurveto
            return
          </CharString>
          <CharString index="274">
            -30 callgsubr
            192 -172 return
          </CharString>
          <CharString index="275">
            -48 -33 -30 -47 -64 vvcurveto
            -152 167 -108 153 return
          </CharString>
          <CharString index="276">
            14 vvcurveto
            36 24 31 47 -7 79 callgsubr
            return
          </CharString>
          <CharString index="277">
            145 45 rcurveline
            193 callsubr
            return
          </CharString>
          <CharString index="278">
            hhcurveto
            -132 -111 -72 -128 -97 65 -88 123 -108 hvcurveto
            97 83 rlineto
            return
          </CharString>
          <CharString index="279">
            hhcurveto
            -129 -110 -74 -126 -100 69 -93 118 -112 hvcurveto
            98 83 rlineto
            return
          </CharString>
          <CharString index="280">
            -18 callgsubr
            -68 -46 -37 return
          </CharString>
          <CharString index="281">
            -105 176 -128 94 -199 -119 rlinecurve
            return
          </CharString>
          <CharString index="282">
            -107 callgsubr
            121 return
          </CharString>
          <CharString index="283">
            127 84 69 -10 56 -100 return
          </CharString>
          <CharString index="284">
            -95 callsubr
            650 -35 callsubr
            -115 89 -95 104 -51 hvcurveto
            -34 -74 -69 -47 -57 1 -28 32 41 43 72 13 rrcurveto
            return
          </CharString>
          <CharString index="285">
            rmoveto
            hintmask 10100000
            88 36 84 92 82 vvcurveto
            53 -33 49 -74 29 vhcurveto
            -49 -27 -39 -41 -9 -59 54 -47 rcurveline
            -2 -32 -28 -47 -39 -33 rrcurveto
            endchar
          </CharString>
          <CharString index="286">
            hhcurveto
            -122 -67 -82 -93 -64 32 -69 67 -51 hvcurveto
            74 37 rlineto
            -18 25 -8 24 22 vvcurveto
            47 37 35 51 86 44 -101 -95 35 vhcurveto
            -107 hlineto
            return
          </CharString>
          <CharString index="287">
            119 55 110 callsubr
            return
          </CharString>
          <CharString index="288">
            37 -25 18 -25 -23 vvcurveto
            -27 -23 -21 -66 -15 vhcurveto
            27 -30 -36 17 -43 hhcurveto
            return
          </CharString>
          <CharString index="289">
            rmoveto
            -29 callgsubr
            return
          </CharString>
          <CharString index="290">
            27 callsubr
            rlineto
            return
          </CharString>
          <CharString index="291">
            -314 0 49 -49 72 611 389 callsubr
            return
          </CharString>
          <CharString index="292">
            361 callsubr
            75 return
          </CharString>
          <CharString index="293">
            -236 hlineto
            -37 -57 -84 -54 -78 14 return
          </CharString>
          <CharString index="294">
            145 callgsubr
            234 hlineto
            return
          </CharString>
          <CharString index="295">
            vvcurveto
            67 -38 89 -123 44 vhcurveto
            return
          </CharString>
          <CharString index="296">
            -14 20 -8 24 23 vvcurveto
            return
          </CharString>
          <CharString index="297">
            24 callgsubr
            10 11 -5 -6 7 hvcurveto
            15 -14 89 91 rlineto
            61 -38 -53 45 -70 294 callgsubr
            return
          </CharString>
          <CharString index="298">
            -104 callsubr
            -185 -263 -91 callgsubr
            return
          </CharString>
          <CharString index="299">
            -89 callgsubr
            196 169 -160 136 hstemhm
            -333 147 246 186 hintmask 11101001
            return
          </CharString>
          <CharString index="300">
            -60 -13 -75 -24 -57 hhcurveto
            -95 -86 65 101 -67 hvcurveto
            -78 -66 rlineto
            223 callgsubr
            hvcurveto
            return
          </CharString>
          <CharString index="301">
            -110 -50 10 -52 -39 -23 -48 -14 -48 9 rlinecurve
            -5 12 -3 11 11 vvcurveto
            43 42 36 106 52 vhcurveto
            79 -28 83 -11 70 13 rrcurveto
            return
          </CharString>
          <CharString index="302">
            237 callgsubr
            102 52 vlineto
            return
          </CharString>
          <CharString index="303">
            rmoveto
            210 callsubr
            return
          </CharString>
          <CharString index="304">
            114 callsubr
            122 182 73 278 callsubr
            return
          </CharString>
          <CharString index="305">
            hintmask 10101001
            -89 callsubr
            hintmask 10110001
            -93 callgsubr
            return
          </CharString>
          <CharString index="306">
            -153 61 rmoveto
            -62 32 -56 51 -48 vhcurveto
            return
          </CharString>
          <CharString index="307">
            8 202 114 202 return
          </CharString>
          <CharString index="308">
            126 -92 161 116 112 -59 101 callsubr
            return
          </CharString>
          <CharString index="309">
            vstem
            -615 1056 rmoveto
            -430 390 229 10 -213 vhcurveto
            111 hlineto
            -3 441 -369 -264 -35 247 rrcurveto
            return
          </CharString>
          <CharString index="310">
            vlineto
            hintmask 10110000
            -25 -9 -34 callgsubr
            return
          </CharString>
          <CharString index="311">
            -33 -54 -53 -49 32 122 -81 vhcurveto
            -86 -66 rlineto
            return
          </CharString>
          <CharString index="312">
            293 callgsubr
            -181 rlineto
            -79 hlineto
            return
          </CharString>
          <CharString index="313">
            15 callsubr
            371 callgsubr
            -100 173 return
          </CharString>
          <CharString index="314">
            hhcurveto
            139 callsubr
            return
          </CharString>
          <CharString index="315">
            8 2 -21 505 295 callsubr
            26 186 hintmask 1110000010000000
            return
          </CharString>
          <CharString index="316">
            -95 callsubr
            292 hlineto
            23 -19 11 -18 -22 vvcurveto
            -21 -10 -18 -18 -14 vhcurveto
            -52 -3 -63 -27 -37 -34 110 -162 rcurveline
            return
          </CharString>
          <CharString index="317">
            239 callgsubr
            -49 hvcurveto
            return
          </CharString>
          <CharString index="318">
            37 -20 121 -121 325 -33 33 125 256 -104 104 return
          </CharString>
          <CharString index="319">
            45 -18 42 -35 37 return
          </CharString>
          <CharString index="320">
            -104 callsubr
            186 hlineto
            355 callsubr
            -810 hlineto
            hintmask 1110100111000000
            -93 callsubr
            return
          </CharString>
          <CharString index="321">
            -5 hvcurveto
            -21 -52 rlineto
            -164 77 113 -67 111 hhcurveto
            30 26 5 11 25 hvcurveto
            -36 380 callsubr
            return
          </CharString>
          <CharString index="322">
            284 callsubr
            156 callgsubr
            return
          </CharString>
          <CharString index="323">
            hlineto
            -153 -73 -85 -97 -104 84 -105 119 -113 hvcurveto
            98 83 rlineto
            -75 75 -41 48 48 vvcurveto
            42 31 31 61 vhcurveto
            return
          </CharString>
          <CharString index="324">
            -93 callsubr
            hintmask 11010011
            -95 callsubr
            return
          </CharString>
          <CharString index="325">
            -54 380 callsubr
            return
          </CharString>
          <CharString index="326">
            173 68 154 3 114 callsubr
            28 153 -125 170 138 166 hintmask 1110100110000000
            return
          </CharString>
          <CharString index="327">
            -15 17 -8 20 19 vvcurveto
            45 45 16 23 -15 vhcurveto
            7 -13 3 -12 -14 vvcurveto
            -64 -60 -40 -103 -20 vhcurveto
            -389 hlineto
            return
          </CharString>
          <CharString index="328">
            -16 4 -17 8 -14 vhcurveto
            66 -46 rlineto
            -1 -9 -9 0 -10 hhcurveto
            -34 -35 5 10 -30 hvcurveto
            -21 27 -11 31 30 vvcurveto
            return
          </CharString>
          <CharString index="329">
            538 132 hstem
            -65 130 vstem
            40 -75 callgsubr
            -40 335 callgsubr
            endchar
          </CharString>
          <CharString index="330">
            187 callgsubr
            10 11 -5 -6 7 hvcurveto
            return
          </CharString>
          <CharString index="331">
            36 104 rlineto
            21 -7 13 -22 -24 vvcurveto
            -30 -23 -35 -59 -52 vhcurveto
            return
          </CharString>
          <CharString index="332">
            115 callsubr
            -98 -64 -68 -81 -64 return
          </CharString>
          <CharString index="333">
            vlineto
            69 callsubr
            return
          </CharString>
          <CharString index="334">
            hstemhm
            24 196 77 201 return
          </CharString>
          <CharString index="335">
            -95 callsubr
            118 hlineto
            return
          </CharString>
          <CharString index="336">
            77 131 callsubr
            return
          </CharString>
          <CharString index="337">
            rlinecurve
            -134 168 return
          </CharString>
          <CharString index="338">
            232 205 rmoveto
            55 -35 28 93 107 hhcurveto
            26 25 -5 -11 26 hvcurveto
            -64 vlineto
            -42 -49 -74 -32 -61 13 rrcurveto
            return
          </CharString>
          <CharString index="339">
            rlinecurve
            6 -32 rlineto
            return
          </CharString>
          <CharString index="340">
            -95 callsubr
            653 hlineto
            37 -25 18 -25 -23 vvcurveto
            -32 -31 -22 -90 -15 vhcurveto
            -37 -5 -46 -2 -47 7 rrcurveto
            return
          </CharString>
          <CharString index="341">
            46 26 40 34 vhcurveto
            28 -92 180 callsubr
            return
          </CharString>
          <CharString index="342">
            rmoveto
            265 callgsubr
            246 return
          </CharString>
          <CharString index="343">
            54 -24 45 47 45 hhcurveto
            10 12 -2 -6 14 hvcurveto
            -30 vlineto
            return
          </CharString>
          <CharString index="344">
            16 59 12 90 -4 46 rrcurveto
            24 -37 -77 37 -111 hhcurveto
            return
          </CharString>
          <CharString index="345">
            -158 32 -98 -100 -108 vvcurveto
            -88 65 -69 68 -39 vhcurveto
            return
          </CharString>
          <CharString index="346">
            -82 callsubr
            19 192 121 186 return
          </CharString>
          <CharString index="347">
            vhcurveto
            35 118 rlineto
            return
          </CharString>
          <CharString index="348">
            -95 callsubr
            60 return
          </CharString>
          <CharString index="349">
            -219 rmoveto
            -9 9 -4 12 14 vvcurveto
            60 75 36 80 7 vhcurveto
            -73 vlineto
            -39 -46 -69 -26 -34 7 rrcurveto
            return
          </CharString>
          <CharString index="350">
            -74 108 rlineto
            -105 hlineto
            -112 -48 -66 -65 -22 6 -23 11 -21 hvcurveto
            -50 -56 -90 -55 -73 13 rrcurveto
            return
          </CharString>
          <CharString index="351">
            79 callgsubr
            69 58 rcurveline
            return
          </CharString>
          <CharString index="352">
            58 -53 48 -78 -42 -50 -14 -30 -41 vhcurveto
            return
          </CharString>
          <CharString index="353">
            -31 -40 -40 -18 -35 -7 rrcurveto
            endchar
          </CharString>
          <CharString index="354">
            36 -30 56 -18 50 -2 return
          </CharString>
          <CharString index="355">
            -72 17 -61 -9 -44 -26 return
          </CharString>
          <CharString index="356">
            -89 97 -86 138 -50 vhcurveto
            151 46 rlineto
            -54 -14 -69 -22 -56 hhcurveto
            -91 -82 60 85 -57 hvcurveto
            return
          </CharString>
          <CharString index="357">
            -98 124 -92 58 -165 -112 rlinecurve
            85 -153 95 58 64 24 76 -80 rlinecurve
            29 -30 rlineto
            return
          </CharString>
          <CharString index="358">
            vvcurveto
            55 38 31 43 5 6 391 callsubr
            -33 -7 -37 368 callsubr
            endchar
          </CharString>
          <CharString index="359">
            538 rmoveto
            86 callsubr
            return
          </CharString>
          <CharString index="360">
            hlineto
            hintmask 1101001001000000
            -93 callsubr
            hintmask 1111100111000000
            -95 callsubr
            return
          </CharString>
          <CharString index="361">
            -95 callsubr
            309 -73 -32 hlineto
            -172 -76 -95 -95 return
          </CharString>
          <CharString index="362">
            156 135 -107 callgsubr
            return
          </CharString>
          <CharString index="363">
            7 321 rmoveto
            -152 89 -205 303 16 vhcurveto
            return
          </CharString>
          <CharString index="364">
            11 11 2 2 11 hvcurveto
            39 -188 175 71 rlineto
            return
          </CharString>
          <CharString index="365">
            62 45 58 92 vhcurveto
            199 hlineto
            return
          </CharString>
          <CharString index="366">
            138 -83 rcurveline
            43 30 rlineto
            return
          </CharString>
          <CharString index="367">
            vvcurveto
            -69 52 -65 69 -41 vhcurveto
            return
          </CharString>
          <CharString index="368">
            24 22 5 8 21 return
          </CharString>
          <CharString index="369">
            hintmask 11100110
            284 488 362 callsubr
            188 -111 return
          </CharString>
          <CharString index="370">
            -84 132 rlineto
            -37 -29 -76 -39 -38 hhcurveto
            -15 -8 7 8 20 46 22 86 17 hvcurveto
            27 52 return
          </CharString>
          <CharString index="371">
            -73 callsubr
            504 102 rmoveto
            return
          </CharString>
          <CharString index="372">
            vvcurveto
            152 callsubr
            return
          </CharString>
          <CharString index="373">
            -280 rmoveto
            228 vlineto
            -70 52 rlineto
            145 -240 hlineto
            -51 -52 -8 -23 19 vhcurveto
            endchar
          </CharString>
          <CharString index="374">
            302 callsubr
            -189 -144 hlineto
            endchar
          </CharString>
          <CharString index="375">
            rmoveto
            -12 -20 2 5 -13 hvcurveto
            203 vlineto
            125 -187 rlineto
            -15 -25 -30 -8 -25 hhcurveto
            return
          </CharString>
          <CharString index="376">
            339 callsubr
            -107 131 -107 372 callsubr
            -50 148 74 179 90 186 return
          </CharString>
          <CharString index="377">
            140 199 167 65 398 callgsubr
            450 163 return
          </CharString>
          <CharString index="378">
            330 callsubr
            364 callgsubr
            endchar
          </CharString>
          <CharString index="379">
            30 20 28 28 18 384 callsubr
            return
          </CharString>
          <CharString index="380">
            403 callgsubr
            36 48 return
          </CharString>
          <CharString index="381">
            -262 4 -21 366 125 -124 263 return
          </CharString>
          <CharString index="382">
            37 -39 -44 12 -85 hhcurveto
            -232 hlineto
            return
          </CharString>
          <CharString index="383">
            -93 callgsubr
            -679 hlineto
            return
          </CharString>
          <CharString index="384">
            2 -21 142 152 return
          </CharString>
          <CharString index="385">
            153 67 179 return
          </CharString>
          <CharString index="386">
            104 -52 41 20 rlineto
            return
          </CharString>
          <CharString index="387">
            rmoveto
            -176 181 -92 -65 87 -162 -94 -154 99 -70 176 178 rlineto
            return
          </CharString>
          <CharString index="388">
            53 80 54 -10 -20 52 137 -57 57 0 -20 hstemhm
            182 112 -106 121 return
          </CharString>
          <CharString index="389">
            -175 -79 vlineto
            49 -39 -55 34 -61 hhcurveto
            endchar
          </CharString>
          <CharString index="390">
            -104 callsubr
            194 342 callsubr
            return
          </CharString>
          <CharString index="391">
            301 callgsubr
            rlineto
            return
          </CharString>
          <CharString index="392">
            374 -81 callgsubr
            return
          </CharString>
          <CharString index="393">
            hlineto
            hintmask 11100111
            186 callgsubr
            return
          </CharString>
          <CharString index="394">
            hlineto
            hintmask 11001011
            -89 callsubr
            hintmask 11010011
            -93 callgsubr
            return
          </CharString>
          <CharString index="395">
            -82 callsubr
            409 186 return
          </CharString>
          <CharString index="396">
            79 -52 83 -109 92 vhcurveto
            -190 28 rlineto
            return
          </CharString>
          <CharString index="397">
            vlineto
            49 -57 68 -50 55 -16 65 37 rcurveline
            86 return
          </CharString>
          <CharString index="398">
            -110 111 -91 104 50 45 21 49 44 return
          </CharString>
          <CharString index="399">
            -3 -25 8 -65 7 -24 rrcurveto
            endchar
          </CharString>
          <CharString index="400">
            392 callsubr
            137 return
          </CharString>
          <CharString index="401">
            -127 79 112 return
          </CharString>
          <CharString index="402">
            26 callsubr
            23 336 callsubr
            return
          </CharString>
          <CharString index="403">
            351 callgsubr
            -4 -4 vvcurveto
            -57 334 callsubr
            return
          </CharString>
          <CharString index="404">
            110 hstem
            52 490 vstem
            52 320 rmoveto
            -110 490 110 vlineto
            return
          </CharString>
          <CharString index="405">
            223 rmoveto
            320 callgsubr
            return
          </CharString>
          <CharString index="406">
            2 -21 214 156 135 88 callgsubr
            return
          </CharString>
          <CharString index="407">
            37 -25 18 -25 -23 vvcurveto
            -25 -20 -20 -54 -14 vhcurveto
            35 -60 -64 16 -61 hhcurveto
            return
          </CharString>
          <CharString index="408">
            -323 241 callgsubr
            323 return
          </CharString>
          <CharString index="409">
            15 callgsubr
            220 return
          </CharString>
          <CharString index="410">
            182 144 186 return
          </CharString>
          <CharString index="411">
            -93 callgsubr
            -800 hlineto
            return
          </CharString>
          <CharString index="412">
            403 callgsubr
            hintmask 0011100010000000
            36 48 -38 73 return
          </CharString>
          <CharString index="413">
            vlineto
            -74 74 rlineto
            63 34 36 62 65 188 callsubr
            return
          </CharString>
          <CharString index="414">
            156 -153 343 callgsubr
            return
          </CharString>
          <CharString index="415">
            71 -99 171 27 19 26 25 16 30 rlinecurve
            -118 155 -107 -37 return
          </CharString>
          <CharString index="416">
            hintmask 01010000
            -89 callsubr
            hintmask 10010000
            -93 callgsubr
            return
          </CharString>
          <CharString index="417">
            0 30 -30 39 31 59.5 return
          </CharString>
          <CharString index="418">
            82 callgsubr
            153 160 return
          </CharString>
          <CharString index="419">
            -1 -55 77 -13 rlineto
            return
          </CharString>
          <CharString index="420">
            380 callsubr
            655 -104 callsubr
            186 hlineto
            return
          </CharString>
          <CharString index="421">
            8 callsubr
            -2 156 -107 156 86 339 callsubr
            return
          </CharString>
          <CharString index="422">
            212 callsubr
            vhcurveto
            98 -278 hlineto
            -106 callsubr
            return
          </CharString>
          <CharString index="423">
            69 6 26 26 18 hhcurveto
            11 8 -9 -14 -19 -14 -12 -24 -29 hvcurveto
            return
          </CharString>
          <CharString index="424">
            -60 -32 -75 -48 -80 hhcurveto
            endchar
          </CharString>
          <CharString index="425">
            hlineto
            hintmask 10000010
            17 112 -99 11 rlineto
            hintmask 00111010
            -19 -123 rlineto
            return
          </CharString>
          <CharString index="426">
            751 160 -35 141 -62 188 hstemhm
            -634 752 return
          </CharString>
          <CharString index="427">
            108 -75 73 -71 33 vhcurveto
            38 -104 callsubr
            286 hlineto
            return
          </CharString>
          <CharString index="428">
            -159 rmoveto
            35 49 rlineto
            596 -104 callsubr
            186 hlineto
            return
          </CharString>
          <CharString index="429">
            hhcurveto
            261 callsubr
            227 callgsubr
            return
          </CharString>
          <CharString index="430">
            -39 -3 48 -45 72 431 -20 200 -20 hstemhm
            83 201 return
          </CharString>
          <CharString index="431">
            69 42 rlineto
            -15 17 -8 20 19 vvcurveto
            45 45 16 23 -15 vhcurveto
            return
          </CharString>
          <CharString index="432">
            -318 382 callgsubr
            return
          </CharString>
          <CharString index="433">
            100 92 -74 86 -93 -92 -72 -86 -92 return
          </CharString>
          <CharString index="434">
            538 -82 callsubr
            return
          </CharString>
          <CharString index="435">
            -82 callsubr
            314 return
          </CharString>
          <CharString index="436">
            hhcurveto
            -66 -60 -30 -48 -42 hvcurveto
            return
          </CharString>
          <CharString index="437">
            vvcurveto
            -77 58 -65 70 -41 vhcurveto
            return
          </CharString>
          <CharString index="438">
            -95 callsubr
            30 -160 hlineto
            return
          </CharString>
          <CharString index="439">
            177 136 174 return
          </CharString>
          <CharString index="440">
            262 callgsubr
            rlineto
            return
          </CharString>
          <CharString index="441">
            40 -53 75 -44 vhcurveto
            -14 return
          </CharString>
          <CharString index="442">
            0 49 449 -20 return
          </CharString>
          <CharString index="443">
            153 78 155 return
          </CharString>
          <CharString index="444">
            262 -11 callsubr
            return
          </CharString>
          <CharString index="445">
            25 30 10 35 30 vvcurveto
            39 -18 34 -32 31 vhcurveto
            endchar
          </CharString>
          <CharString index="446">
            -20 15 callsubr
            return
          </CharString>
          <CharString index="447">
            65 37 rlineto
            86 return
          </CharString>
          <CharString index="448">
            114 callgsubr
            hintmask 1110100110000000
            -95 callsubr
            return
          </CharString>
          <CharString index="449">
            hlineto
            355 callgsubr
            return
          </CharString>
          <CharString index="450">
            8 callsubr
            -115 403 -211 172 return
          </CharString>
          <CharString index="451">
            -82 callsubr
            12 195 216 40 return
          </CharString>
          <CharString index="452">
            101 47.5 81.5 -3 76 return
          </CharString>
          <CharString index="453">
            69 callsubr
            -282 hlineto
            return
          </CharString>
          <CharString index="454">
            -87 callsubr
            hintmask 10110001
            -103 callsubr
            endchar
          </CharString>
          <CharString index="455">
            -128 169 -147 151 return
          </CharString>
          <CharString index="456">
            -482 133 136 146 return
          </CharString>
          <CharString index="457">
            53 381 callgsubr
            return
          </CharString>
          <CharString index="458">
            74 -74 336 -158 158 return
          </CharString>
          <CharString index="459">
            rcurveline
            133 -109 return
          </CharString>
          <CharString index="460">
            90 vhcurveto
            178 hlineto
            return
          </CharString>
          <CharString index="461">
            130 186 return
          </CharString>
          <CharString index="462">
            hintmask 1110101011000000
            -89 callsubr
            hintmask 1110110011000000
            -93 callgsubr
            return
          </CharString>
          <CharString index="463">
            -20 76 -82 callsubr
            12 195 return
          </CharString>
          <CharString index="464">
            9 -28 -34 4 -47 hhcurveto
            -46 hlineto
            96 -274 rmoveto
            return
          </CharString>
          <CharString index="465">
            -107 callgsubr
            54 159 return
          </CharString>
          <CharString index="466">
            181 245 callgsubr
            return
          </CharString>
          <CharString index="467">
            -83 22 -21 342 143 52 132 -49 49 return
          </CharString>
          <CharString index="468">
            2 callsubr
            36 48 -39 return
          </CharString>
          <CharString index="469">
            rmoveto
            188 callgsubr
            -147 return
          </CharString>
          <CharString index="470">
            -72 91 -98 124 -92 58 -165 -112 rlinecurve
            return
          </CharString>
          <CharString index="471">
            -54 77 -79 38 vhcurveto
            31 -104 callsubr
            endchar
          </CharString>
          <CharString index="472">
            -42 -29 -27 -43 -52 vvcurveto
            return
          </CharString>
          <CharString index="473">
            173 203 186 return
          </CharString>
          <CharString index="474">
            -46 59 rlineto
            -380 hlineto
            return
          </CharString>
          <CharString index="475">
            1 389 callgsubr
            return
          </CharString>
          <CharString index="476">
            109 122 123 return
          </CharString>
          <CharString index="477">
            74 179 100 186 return
          </CharString>
          <CharString index="478">
            -102 23 -79 -78 -89 vvcurveto
            return
          </CharString>
          <CharString index="479">
            -86 callsubr
            hstemhm
            return
          </CharString>
          <CharString index="480">
            hlineto
            -13 callsubr
            return
          </CharString>
          <CharString index="481">
            hlineto
            hintmask 00110000
            -93 callsubr
            hintmask 10010000
            -95 callsubr
            return
          </CharString>
          <CharString index="482">
            165 75 191 -171 162 hintmask 11101000
            return
          </CharString>
          <CharString index="483">
            -107 callgsubr
            196 return
          </CharString>
          <CharString index="484">
            187 -70 callgsubr
            -126 hlineto
            return
          </CharString>
          <CharString index="485">
            756.72 175.71 hstem
            return
          </CharString>
          <CharString index="486">
            hhcurveto
            -47 -59 -15 -61 -52 hvcurveto
            return
          </CharString>
          <CharString index="487">
            vlineto
            -106 callsubr
            return
          </CharString>
          <CharString index="488">
            115 87 88 7 136 return
          </CharString>
          <CharString index="489">
            -30 -36 -45 -21 -27 -6 rrcurveto
            return
          </CharString>
          <CharString index="490">
            -183 -21 199 124 return
          </CharString>
          <CharString index="491">
            32 230 callsubr
            rlineto
            return
          </CharString>
          <CharString index="492">
            53 39 52 81 vhcurveto
            163 return
          </CharString>
          <CharString index="493">
            hhcurveto
            14 13 1 2 12 hvcurveto
            return
          </CharString>
          <CharString index="494">
            87 -61 90 -81 50 vhcurveto
            60 return
          </CharString>
          <CharString index="495">
            166 -46 146 return
          </CharString>
          <CharString index="496">
            -20 hstemhm
            81 201 return
          </CharString>
          <CharString index="497">
            96 -61 -87 callsubr
            return
          </CharString>
          <CharString index="498">
            0 -1 5 vhcurveto
            -13 return
          </CharString>
          <CharString index="499">
            -61 143 -80 -21 return
          </CharString>
          <CharString index="500">
            105 494 107 return
          </CharString>
          <CharString index="501">
            hstemhm
            82 202 return
          </CharString>
          <CharString index="502">
            hintmask 11101001
            -89 callsubr
            hintmask 11110001
            -93 callgsubr
            return
          </CharString>
          <CharString index="503">
            107 161 233 -20 191 -20 hstemhm
            return
          </CharString>
          <CharString index="504">
            vvcurveto
            89 -79 96 -120 -97 -51 -61 -59 return
          </CharString>
          <CharString index="505">
            609 3 rmoveto
            67 -35 68 -65 47 vhcurveto
            return
          </CharString>
          <CharString index="506">
            751 160 44 188 hstem
            -634 return
          </CharString>
          <CharString index="507">
            86 165 50 157 -157 327 return
          </CharString>
          <CharString index="508">
            -83 -50 131 585 -20 21 -20 hstemhm
            return
          </CharString>
          <CharString index="509">
            24 callgsubr
            4 return
          </CharString>
          <CharString index="510">
            -49 49 hstemhm
            24 332 callsubr
            return
          </CharString>
          <CharString index="511">
            -95 callsubr
            409 262 callgsubr
            return
          </CharString>
          <CharString index="512">
            hintmask 101000010010011111110000
            return
          </CharString>
          <CharString index="513">
            -111 134 return
          </CharString>
        <CharString name=".notdef">
          -171 23 131 174 130 hstem
          47 123 174 121 vstem
          47 23 rmoveto
          418 435 -418 hlineto
          123 -130 rmoveto
          174 -174 -174 hlineto
          endchar
        </CharString>
        <CharString name="A">
          -79 callgsubr
          -38 -436 90 callsubr
        </CharString>
        <CharString name="AE">
          299 0 113 -113 222.5 -60.5 92 28.5 383.5 -215 215 -105 105 354 callgsubr
          hstemhm
          432 202 hintmask 1010010010000000
          275 666 rmoveto
          hintmask 1010000110000000
          -1 -55 rlineto
          hintmask 1010001010000000
          77 -13 -260 -507 -29 -15 -41 -21 -27 -22 rlinecurve
          6 -33 rlineto
          287 hlineto
          1 55 -80 14 47 93 rlineto
          177 -77 hlineto
          -29 -15 -33 -18 -23 -19 6 -33 rcurveline
          564 1 hlineto
          17 -1 rlineto
          hintmask 0100010010000000
          8 64 6 95 -2 59 -115 9 rcurveline
          hintmask 1011000010000000
          -38 -109 -159 -10 rlineto
          179 vlineto
          211 -9 rlineto
          115 vlineto
          -211 -18 rlineto
          hintmask 1010010010000000
          191 vlineto
          152 -10 rlineto
          hintmask 1010100010000000
          20 -105 rlineto
          115 hlineto
          hintmask 1010010010000000
          15 69 8 100 -2 46 rrcurveto
          -510 -412 rmoveto
          -131 hlineto
          131 264 rlineto
          endchar
        </CharString>
        <CharString name="Aacute">
          -79 callgsubr
          -176 -6 -56 callgsubr
          189 -519 90 callsubr
        </CharString>
        <CharString name="Abreve">
          58 0 254 -92 92 474 165.5 hstemhm
          -20 777 -572 109 hintmask 10110000
          -68 callgsubr
          hintmask 01110000
          71 callsubr
          -20 204 rmoveto
          hintmask 10101000
          94 callgsubr
          -141 -639 90 callsubr
        </CharString>
        <CharString name="Acircumflex">
          -79 callgsubr
          -229 17 32 callsubr
          259 -515 90 callsubr
        </CharString>
        <CharString name="Adieresis">
          -79 callgsubr
          -211 246 -101 callsubr
          -84 -682 90 callsubr
        </CharString>
        <CharString name="Agrave">
          -79 callgsubr
          -173 232 90 callgsubr
          -114 -519 90 callsubr
        </CharString>
        <CharString name="Amacron">
          58 0 254 -92 92 488 109 hstemhm
          -20 777 hintmask 10110000
          -68 callgsubr
          hintmask 01110000
          71 callsubr
          -279 136 51 callgsubr
          241 -572 90 callsubr
        </CharString>
        <CharString name="Aogonek">
          58 -294 99 195 254 -92 92 hstemhm
          418 134 hintmask 01010000
          -68 callgsubr
          hintmask 00110000
          -81 14 35 93 rlineto
          204 hlineto
          hintmask 11010000
          31 -83 -28 -14 -25 -16 -22 -17 232 callsubr
          202 hlineto
          -119 -47 -59 -67 -64 110 callgsubr
          52 55 42 78 49 vhcurveto
          71 hlineto
          1 55 -71 12 -250 623 rlineto
          -38 -436 90 callsubr
        </CharString>
        <CharString name="Aring">
          58 0 254 -92 92 455 51 116 89 hstemhm
          233 69 117 69 hintmask 10111100
          -68 callgsubr
          hintmask 01111100
          -81 14 35 93 rlineto
          204 hlineto
          hintmask 10111100
          31 -83 -28 -14 -25 -16 -22 -17 232 callsubr
          362 hlineto
          1 55 -71 12 -250 623 rlineto
          -72 19 -67 callgsubr
          38 -622 90 callsubr
        </CharString>
        <CharString name="Atilde">
          58 0 254 -92 92 528 133 hstemhm
          -20 777 hintmask 10010000
          -68 callgsubr
          hintmask 01010000
          71 callsubr
          -250 33 -62 callsubr
          271 -513 90 callsubr
        </CharString>
        <CharString name="B">
          34 0 97 209 78 -78 368 -112 112 -97 97 213 callgsubr
          138 206 -185 213 hintmask 10100101
          37 666 rmoveto
          -1 -55 71 -12 rlineto
          -515 402 callgsubr
          376 hlineto
          214 71 94 91 77 -49 67 -97 21 hvcurveto
          hintmask 10100110
          80 22 38 73 56 vvcurveto
          84 -87 89 -174 vhcurveto
          hintmask 10100101
          -90 -174 -3 -5 -99 hvcurveto
          hintmask 11001110
          362 -89 rmoveto
          35 -12 21 -49 -40 vvcurveto
          -46 -28 -46 -67 vhcurveto
          -43 hlineto
          hintmask 10010101
          178 vlineto
          61 -469 rmoveto
          -61 8 rlineto
          hintmask 10100101
          205 67 vlineto
          55 37 -61 -54 hvcurveto
          hintmask 10010101
          -51 -31 -55 -67 8 vhcurveto
          endchar
        </CharString>
        <CharString name="C">
          -55 callsubr
          endchar
        </CharString>
        <CharString name="Cacute">
          -55 callsubr
          -366 613 -56 callgsubr
          endchar
        </CharString>
        <CharString name="Ccaron">
          -55 callsubr
          -489 789 rmoveto
          -49 callsubr
        </CharString>
        <CharString name="Ccedilla">
          -72 -273 217 38 128 -101 -21 427 271 -104 104 hstemhm
          7 208 116 140 hintmask 11001110
          576 164 rmoveto
          -175 -54 rlineto
          -125 1 -61 105 134 vvcurveto
          86 25 90 52 56 vhcurveto
          41 -4 36 -8 33 -12 rrcurveto
          hintmask 10110110
          36 -143 rlineto
          124 hlineto
          hintmask 10101110
          15 56 15 103 -4 46 rrcurveto
          32 -47 -64 34 -107 hhcurveto
          -247 -116 -181 -181 -135 64 -167 212 -34 hvcurveto
          -49 -59 -59 callsubr
          hintmask 11001110
          21 38 rlineto
          12 12 0 1 12 hvcurveto
          214 88 rlineto
          endchar
        </CharString>
        <CharString name="D">
          -3 callsubr
          endchar
        </CharString>
        <CharString name="Dcaron">
          -3 callsubr
          -218 760 rmoveto
          -49 callsubr
        </CharString>
        <CharString name="Dcroat">
          -22 callgsubr
        </CharString>
        <CharString name="E">
          -102 callsubr
          endchar
        </CharString>
        <CharString name="Eacute">
          -102 callsubr
          210 652 -56 callgsubr
          endchar
        </CharString>
        <CharString name="Ecaron">
          -102 callsubr
          87 828 rmoveto
          -49 callsubr
        </CharString>
        <CharString name="Ecircumflex">
          -102 callsubr
          157 675 32 callsubr
          endchar
        </CharString>
        <CharString name="Edieresis">
          -102 callsubr
          175 904 -101 callsubr
          endchar
        </CharString>
        <CharString name="Edotaccent">
          -102 callsubr
          308 904 -54 callsubr
        </CharString>
        <CharString name="Egrave">
          -102 callsubr
          213 890 90 callgsubr
          endchar
        </CharString>
        <CharString name="Emacron">
          -13 0 107.5 -107.5 222.5 59.5 102.5 66.5 215 -104 104 354 callgsubr
          76 109 213 callgsubr
          hintmask 1010100110000000
          22 32 rmoveto
          6 -32 rlineto
          579 hlineto
          1 hlineto
          hintmask 0110100110000000
          8 64 6 95 -2 59 -115 9 rcurveline
          hintmask 1010100110000000
          -39 -113 -149 -13 rlineto
          185 vlineto
          203 -8 rlineto
          115 vlineto
          -203 -17 rlineto
          191 vlineto
          144 -10 rlineto
          hintmask 1011000110000000
          20 -106 rlineto
          115 hlineto
          hintmask 1010100110000000
          15 69 8 100 -2 46 rrcurveto
          -585 hlineto
          hintmask 1010001110000000
          -1 -55 rlineto
          hintmask 1010010110000000
          230 callgsubr
          hintmask 1010100110000000
          -32 -16 -28 -17 -25 -19 rrcurveto
          107 794 51 callgsubr
          endchar
        </CharString>
        <CharString name="Eogonek">
          -13 -296 99 197 107.5 174.5 102.5 66.5 215 -104 104 354 callgsubr
          213 callgsubr
          25 134 hintmask 0110100100000000
          22 32 rmoveto
          6 -32 rlineto
          497 hlineto
          hintmask 1110100110000000
          -122 -47 -61 -68 -65 110 callgsubr
          53 57 42 79 50 vhcurveto
          -4 4 8 60 6 95 -2 59 rlinecurve
          -115 9 -39 -113 rlineto
          hintmask 0110100100000000
          -149 -13 rlineto
          185 vlineto
          203 -8 rlineto
          115 vlineto
          -203 -17 rlineto
          191 vlineto
          144 -10 rlineto
          hintmask 0111000100000000
          20 -106 rlineto
          115 hlineto
          hintmask 0110100100000000
          15 69 8 100 -2 46 rrcurveto
          -585 hlineto
          hintmask 0110001100000000
          -1 -55 rlineto
          hintmask 0110010100000000
          230 callgsubr
          hintmask 0110100100000000
          -32 -16 -28 -17 -25 -19 rrcurveto
          endchar
        </CharString>
        <CharString name="Eth">
          -22 callgsubr
        </CharString>
        <CharString name="Euro">
          -15 -22 125 95 76 55 76 37 228 -117 117 hstemhm
          -23 679 -570 199 hintmask 11101100
          622 141 rmoveto
          -146 -38 -83 6 -53 34 -29 55 rlinecurve
          197 hlineto
          41 49 -6 27 rlineto
          hintmask 11101010
          -255 hlineto
          -2 16 -1 17 18 vvcurveto
          4 263 vlineto
          41 49 -6 27 rlineto
          -290 hlineto
          13 61 28 51 40 36 46 3 45 -8 45 -21 rrcurveto
          hintmask 11110100
          16 -85 rlineto
          90 hlineto
          hintmask 11101010
          17 45 13 53 10 67 rrcurveto
          -1 hlineto
          40 -52 -77 23 -84 hhcurveto
          -195 -114 -124 -141 -35 hvcurveto
          -58 hlineto
          -41 -49 6 -27 rlineto
          81 hlineto
          -6 0 -7 -6 vvcurveto
          -12 1 -12 1 -12 vhcurveto
          -70 hlineto
          -41 -49 6 -27 rlineto
          120 hlineto
          36 -117 102 -111 227 8 184 73 rcurveline
          endchar
        </CharString>
        <CharString name="F">
          -37 0 55 -55 77 178.5 109.5 78 223 -103 103 354 callgsubr
          hstemhm
          101 210 hintmask 10101001
          24 32 rmoveto
          6 -32 rlineto
          404 hlineto
          1 55 rlineto
          hintmask 01101001
          -124 22 rlineto
          184 vlineto
          219 -11 rlineto
          123 vlineto
          -219 -16 rlineto
          211 vlineto
          143 -10 rlineto
          hintmask 10110001
          21 -115 rlineto
          115 hlineto
          hintmask 10101001
          15 69 8 108 -2 46 rrcurveto
          -585 hlineto
          hintmask 10100011
          -1 -55 rlineto
          hintmask 01100101
          76 -13 rlineto
          -518 vlineto
          hintmask 10101001
          -29 -15 -26 -15 -22 -18 rrcurveto
          endchar
        </CharString>
        <CharString name="G">
          211 callsubr
          hstemhm
          7 207 230 186 hintmask 01001110
          256 callsubr
          231 87 rlineto
          hintmask 00101110
          169 vlineto
          76 22 rlineto
          hintmask 01001110
          -1 47 rlineto
          -345 hlineto
          hintmask 10101110
          42 callsubr
          hintmask 01010110
          385 callgsubr
          hintmask 01001110
          237 callsubr
          -248 -138 -175 -190 hvcurveto
          endchar
        </CharString>
        <CharString name="Gbreve">
          211 callsubr
          42 165.5 hstemhm
          7 207 -32 109 153 186 hintmask 0100111010000000
          256 callsubr
          231 87 rlineto
          hintmask 0010111010000000
          169 vlineto
          76 22 rlineto
          hintmask 0100111010000000
          -1 47 rlineto
          -345 hlineto
          hintmask 1010111010000000
          42 callsubr
          hintmask 0101011010000000
          385 callgsubr
          hintmask 0100111010000000
          237 callsubr
          -248 -138 -175 -190 hvcurveto
          406 573 rmoveto
          hintmask 0100110110000000
          94 callgsubr
          endchar
        </CharString>
        <CharString name="Gcommaaccent">
          211 callsubr
          hstemhm
          7 207 102 140 -12 186 hintmask 01001110
          256 callsubr
          hintmask 01001101
          231 87 rlineto
          hintmask 00101101
          169 vlineto
          76 22 rlineto
          hintmask 01001101
          -1 47 rlineto
          -345 hlineto
          hintmask 10101101
          42 callsubr
          hintmask 01010101
          385 callgsubr
          hintmask 01001101
          237 callsubr
          hintmask 01001110
          -248 -138 -175 -190 hvcurveto
          283 -477 -84 callgsubr
        </CharString>
        <CharString name="H">
          172 0 383 -102 102 215 68 -55 55 -32 32 213 callgsubr
          217 210 hintmask 10001110
          458 666 rmoveto
          hintmask 10010110
          -1 -55 rlineto
          hintmask 10100110
          77 -13 rlineto
          -215 -217 vlineto
          hintmask 10001110
          199 -76 callgsubr
          -365 hlineto
          hintmask 10010110
          -1 -55 rlineto
          hintmask 10100110
          77 -13 rlineto
          -514 297 callgsubr
          hintmask 01001110
          211 217 vlineto
          hintmask 10001110
          -197 297 callgsubr
          512 -76 callgsubr
          endchar
        </CharString>
        <CharString name="I">
          -78 callsubr
          endchar
        </CharString>
        <CharString name="Iacute">
          -78 callsubr
          85 684 -56 callgsubr
          endchar
        </CharString>
        <CharString name="Icircumflex">
          -255 135 callsubr
          -84 944 -346 68 -55 55 -32 32 213 callgsubr
          hintmask 10000011
          405 hmoveto
          1 55 rlineto
          hintmask 01000011
          -89 15 rlineto
          512 -76 callgsubr
          -365 hlineto
          hintmask 10000101
          -1 -55 rlineto
          hintmask 00101001
          229 callsubr
          hintmask 10000011
          -47 callgsubr
          32 707 rmoveto
          153 116 161 -116 64 62 rlineto
          hintmask 00010001
          -157 175 rlineto
          -131 hlineto
          -158 -175 rlineto
          endchar
        </CharString>
        <CharString name="Idieresis">
          -78 callsubr
          50 936 -101 callsubr
          endchar
        </CharString>
        <CharString name="Idotaccent">
          -78 callsubr
          183 936 -54 callsubr
        </CharString>
        <CharString name="Igrave">
          -78 callsubr
          88 922 90 callgsubr
          endchar
        </CharString>
        <CharString name="Imacron">
          -242 135 callsubr
          514 68 -55 55 -32 32 71 109 hstemhm
          110 210 hintmask 10000111
          34 821 rmoveto
          6 -84 rlineto
          328 hlineto
          47 50 -5 59 rlineto
          -263 hlineto
          -31 -43 -5 -20 -39 hvcurveto
          374 -821 rmoveto
          1 55 rlineto
          hintmask 01000111
          -89 15 rlineto
          512 -76 callgsubr
          -365 hlineto
          hintmask 10001011
          -1 -55 rlineto
          hintmask 00110011
          229 callsubr
          hintmask 10000111
          -47 callgsubr
          endchar
        </CharString>
        <CharString name="Iogonek">
          -255 -294 99 195 55 -55 84 514 68 -55 55 -32 32 hstemhm
          50 134 -77 210 hintmask 10100101
          317 hmoveto
          88 hlineto
          hintmask 11000101
          1 55 -89 15 rlineto
          512 -76 callgsubr
          -365 hlineto
          hintmask 10101001
          -1 -55 rlineto
          hintmask 10110001
          77 128 callgsubr
          200 hlineto
          hintmask 10100110
          -119 -47 -59 -67 -64 110 callgsubr
          hintmask 10100101
          52 55 42 78 49 vhcurveto
          endchar
        </CharString>
        <CharString name="J">
          -258 597 69 -55 55 -32 32 hstemhm
          112 209 hintmask 00110000
          32 666 rmoveto
          hintmask 01010000
          -1 -55 rlineto
          hintmask 10010000
          81 -14 rlineto
          -445 vlineto
          -168 -59 -62 -84 -53 vhcurveto
          34 -59 rlineto
          193 58 125 85 224 vvcurveto
          hintmask 00110000
          404 vlineto
          33 16 28 18 25 19 -6 32 rcurveline
          endchar
        </CharString>
        <CharString name="K">
          104 0 55 556 55 -32 32 213 callgsubr
          hintmask 10110000
          109 callgsubr
          hintmask 11010000
          -1 -55 63 -11 -197 -211 rlineto
          hintmask 10110000
          193 -76 callgsubr
          -365 388 callgsubr
          229 callsubr
          hintmask 10110000
          -32 -16 -28 -17 -25 -19 rrcurveto
          endchar
        </CharString>
        <CharString name="Kcommaaccent">
          104 0 55 556 55 -32 32 213 callgsubr
          50 140 hintmask 10111000
          109 callgsubr
          hintmask 11011000
          -1 -55 63 -11 -197 -211 rlineto
          hintmask 10111000
          193 -76 callgsubr
          -365 hlineto
          hintmask 11011000
          -1 -55 229 callsubr
          hintmask 10111000
          -32 -16 -28 -17 -25 -19 rrcurveto
          319 -188 -84 callgsubr
        </CharString>
        <CharString name="L">
          74 callgsubr
          hintmask 01001100
          31 666 rmoveto
          hintmask 01010100
          -1 -55 rlineto
          hintmask 10100100
          229 callsubr
          hintmask 01001100
          -19 callgsubr
          endchar
        </CharString>
        <CharString name="Lacute">
          74 callgsubr
          hintmask 01001100
          31 666 rmoveto
          hintmask 01010100
          -1 -55 rlineto
          hintmask 10100100
          229 callsubr
          hintmask 01001100
          -19 callgsubr
          -266 18 -56 callgsubr
          endchar
        </CharString>
        <CharString name="Lcaron">
          74 callgsubr
          187 143 hintmask 01001110
          31 666 rmoveto
          hintmask 01010110
          -1 -55 rlineto
          hintmask 10100110
          229 callsubr
          hintmask 01001110
          -19 callgsubr
          74 -26 rmoveto
          34 callsubr
        </CharString>
        <CharString name="Lcommaaccent">
          74 callgsubr
          -26 140 hintmask 01001100
          31 666 rmoveto
          hintmask 01010100
          -1 -55 rlineto
          hintmask 10100100
          229 callsubr
          hintmask 01001100
          -19 callgsubr
          hintmask 01001010
          -131 -822 -84 callgsubr
        </CharString>
        <CharString name="Lslash">
          -25 0 84 -84 266.5 331.5 68 -55 55 -32 32 hstemhm
          126 210 hintmask 01001100
          26 283 rmoveto
          27 -62 73 32 rlineto
          hintmask 10001100
          -169 vlineto
          hintmask 01001100
          -47 callgsubr
          600 hlineto
          1 hlineto
          13 73 4 116 -2 72 -119 11 rcurveline
          -50 -153 -158 -18 rlineto
          243 vlineto
          100 44 17 51 -16 25 -101 -44 rlineto
          162 -76 callgsubr
          -365 hlineto
          hintmask 01010100
          -1 -55 rlineto
          hintmask 01100100
          77 -13 rlineto
          -271 vlineto
          endchar
        </CharString>
        <CharString name="M">
          324 0 47 -47 650 -636 -21 610 47 -32 32 hstemhm
          114 336 callgsubr
          443 196.5 hintmask 01000110
          34 650 rmoveto
          hintmask 00010110
          -1 -47 86 -25 rlineto
          hintmask 01000110
          -10 -492 -34 -17 -29 -17 -25 -20 232 callsubr
          308 hlineto
          hintmask 10000110
          1 47 -85 25 1 192 -14 181 rlineto
          hintmask 00100110
          163 -452 142 23 165 430 -14 -182 rlineto
          hintmask 01000110
          1 -180 -32 -16 -29 -17 -24 -19 232 callsubr
          368 hlineto
          hintmask 10001110
          1 47 -90 26 -8 490 34 17 30 18 26 20 rlinecurve
          hintmask 01000110
          -6 32 rlineto
          -283 hlineto
          -169 -447 -159 446 1 1 rlineto
          endchar
        </CharString>
        <CharString name="N">
          -71 callsubr
          endchar
        </CharString>
        <CharString name="NULL">
          -83 endchar
        </CharString>
        <CharString name="Nacute">
          -71 callsubr
          259 652 -56 callgsubr
          endchar
        </CharString>
        <CharString name="Ncaron">
          -71 callsubr
          136 828 rmoveto
          -49 callsubr
        </CharString>
        <CharString name="Ncommaaccent">
          119 135 callsubr
          -77 -21 625 55 -32 32 hstemhm
          107 142 105 140 67 -1 callgsubr
          306 -188 -84 callgsubr
        </CharString>
        <CharString name="Ntilde">
          119 135 callsubr
          -77 -21 625 55 -32 32 116 133 hstemhm
          107 142 312 -1 callgsubr
          185 691 -62 callsubr
          endchar
        </CharString>
        <CharString name="O">
          15 -20 393 callsubr
          -97 callgsubr
          endchar
        </CharString>
        <CharString name="OE">
          322 -18 105 -87 113.5 -113.5 222.5 59.5 102.5 66.5 215 -106 106 -91 110 hstemhm
          28 207 221 210 hintmask 1001001110000000
          391 87 rmoveto
          -107 -49 122 131 96 26 90 46 40 hvcurveto
          7 21 21 2 22 hhcurveto
          27 32 -4 -14 26 hvcurveto
          -456 vlineto
          -9 -21 -23 -5 -21 hhcurveto
          hintmask 0101100110000000
          568 364 rmoveto
          hintmask 0101010110000000
          15 69 8 100 -2 46 rrcurveto
          -477 hlineto
          hintmask 1001001110000000
          12 -36 -39 7 -42 hhcurveto
          -188 -170 -131 -224 -239 186 -109 171 hvcurveto
          hintmask 0101010110000000
          41 41 5 13 39 hvcurveto
          466 hlineto
          hintmask 0011010110000000
          8 64 6 95 -2 59 -115 9 rcurveline
          hintmask 0101010110000000
          -38 -108 -165 -11 rlineto
          178 vlineto
          202 -8 rlineto
          115 vlineto
          -202 -17 rlineto
          189 vlineto
          158 -10 rlineto
          hintmask 0101100110000000
          20 -104 rlineto
          endchar
        </CharString>
        <CharString name="Oacute">
          15 -20 393 callsubr
          -97 callgsubr
          -84 105 -56 callgsubr
          endchar
        </CharString>
        <CharString name="Ocircumflex">
          15 -20 393 callsubr
          -97 callgsubr
          -137 128 32 callsubr
          endchar
        </CharString>
        <CharString name="Odieresis">
          15 -20 393 callsubr
          -97 callgsubr
          -119 357 -101 callsubr
          endchar
        </CharString>
        <CharString name="Ograve">
          15 -20 393 callsubr
          -97 callgsubr
          -81 343 90 callgsubr
          endchar
        </CharString>
        <CharString name="Ohungarumlaut">
          15 -20 393 callsubr
          -97 callgsubr
          -92 129 66 callsubr
        </CharString>
        <CharString name="Omacron">
          15 -20 393 callsubr
          56 109 -97 callgsubr
          -187 247 51 callgsubr
          endchar
        </CharString>
        <CharString name="Oslash">
          30 -20 105 -63 -21 578 107 hstemhm
          8 219 244 219 hintmask 01111000
          175 -93 rmoveto
          52 94 rlineto
          hintmask 10111000
          -14 40 43 -7 44 hhcurveto
          394 callgsubr
          114 229 127 -48 97 -74 62 hvcurveto
          55 97 -79 45 -53 -95 rlineto
          20 -44 -49 10 -51 hhcurveto
          -188 -151 -138 -220 hvcurveto
          hintmask 01111000
          -134 56 -96 83 -57 vhcurveto
          -51 -91 rlineto
          238 629 rmoveto
          36 29 -19 -30 22 hvcurveto
          -178 -317 rlineto
          -10 39 -6 46 52 vvcurveto
          110 25 76 31 32 vhcurveto
          6 15 18 5 18 hhcurveto
          hintmask 10111000
          38 -494 rmoveto
          -30 -27 12 21 -22 hvcurveto
          169 302 rlineto
          6 -31 3 -34 -34 vvcurveto
          -101 -25 -87 -37 -40 vhcurveto
          -4 -10 -10 -4 -17 hhcurveto
          endchar
        </CharString>
        <CharString name="Otilde">
          15 -20 393 callsubr
          96 133 -97 callgsubr
          -158 144 -62 callsubr
          endchar
        </CharString>
        <CharString name="P">
          -1 0 55 -55 77 152.5 103.5 229 112 -97 97 -76 76 -63 63 -8 -20 hstemhm
          101 210 151 211 hintmask 1010000110000000
          26 666 rmoveto
          hintmask 1010001010000000
          -1 -55 rlineto
          hintmask 0110010010000000
          76 -13 rlineto
          -518 vlineto
          hintmask 1010000110000000
          -29 -15 -26 -15 -22 -18 6 -32 rcurveline
          404 hlineto
          1 55 rlineto
          hintmask 0110010011000000
          -124 22 rlineto
          152 vlineto
          91 1 rlineto
          158 1 113 90 125 vvcurveto
          117 -97 113 -183 -2 vhcurveto
          -28 -341 rmoveto
          -14 -20 2 6 -20 hvcurveto
          hintmask 1011000010000000
          221 vlineto
          hintmask 1010100011000000
          107 15 rlineto
          29 -21 15 -62 -46 vvcurveto
          hintmask 0110010011000000
          -61 -30 -54 -67 vhcurveto
          endchar
        </CharString>
        <CharString name="Q">
          52 -181 -21 182 393 callsubr
          hstem
          8 219 244 219 vstem
          8 328 rmoveto
          -229 163 -119 183 vhcurveto
          3 2 0 3 hhcurveto
          278 -182 95 170 -217 49 rlineto
          101 50 71 102 154 vvcurveto
          231 -159 132 -184 -188 -151 -138 -220 vhcurveto
          326 251 rmoveto
          95 42 -126 -132 -101 -25 -87 -37 -40 hvcurveto
          -4 -10 -10 -4 -17 hhcurveto
          -90 -55 101 164 110 25 76 31 32 hvcurveto
          6 15 18 5 18 hhcurveto
          endchar
        </CharString>
        <CharString name="R">
          -79 callsubr
          endchar
        </CharString>
        <CharString name="Racute">
          -79 callsubr
          -134 10 -56 callgsubr
          endchar
        </CharString>
        <CharString name="Rcaron">
          -79 callsubr
          -257 186 rmoveto
          -49 callsubr
        </CharString>
        <CharString name="Rcommaaccent">
          63 0 55 193.5 94.5 219 112 -97 97 -76 76 -63 63 -8 -20 213 callgsubr
          12 140 -3 212 hintmask 1100001101000000
          364 343 rmoveto
          -14 -16 2 5 -17 hvcurveto
          hintmask 1110000101000000
          212 vlineto
          hintmask 1101000101000000
          107 15 rlineto
          28 -30 14 -48 -44 vvcurveto
          hintmask 1100001101000000
          -70 -35 -42 -67 vhcurveto
          -332 323 rmoveto
          hintmask 1100010101000000
          -1 -55 rlineto
          hintmask 1100100101000000
          76 128 callgsubr
          363 hlineto
          1 55 -75 13 rlineto
          180 vlineto
          48 1 129 -249 rlineto
          248 hlineto
          1 55 -59 10 -132 213 rlineto
          76 37 50 66 79 vvcurveto
          117 -112 97 -175 vhcurveto
          hintmask 1100001110000000
          -88 -830 -84 callgsubr
        </CharString>
        <CharString name="S">
          -78 callgsubr
          endchar
        </CharString>
        <CharString name="Sacute">
          -78 callgsubr
          175 211 -56 callgsubr
          endchar
        </CharString>
        <CharString name="Scaron">
          -78 callgsubr
          52 387 rmoveto
          -49 callsubr
        </CharString>
        <CharString name="Scedilla">
          -61 -273 217 62 -21 462 239 -90 90 hstemhm
          48 195 59 140 -59 206 hintmask 01011100
          48 473 rmoveto
          -118 100 -55 90 -42 vhcurveto
          hintmask 01011010
          79 -36 66 -26 -56 vvcurveto
          -23 -14 -26 -38 -17 vhcurveto
          -30 3 -30 5 -29 10 -81 149 rcurveline
          -90 hlineto
          -14 -50 -11 -103 5 -47 -1 -2 rcurveline
          hintmask 11011100
          57 -28 76 -19 68 -7 -46 -56 rcurveline
          -59 callsubr
          20 37 rlineto
          hintmask 01011010
          144 4 118 74 131 vvcurveto
          125 -95 54 -90 42 vhcurveto
          -84 39 -77 25 51 vvcurveto
          22 13 30 31 18 vhcurveto
          33 -2 31 -6 30 -11 rrcurveto
          hintmask 01101010
          49 -130 rlineto
          105 hlineto
          hintmask 01011010
          15 59 6 77 3 62 rrcurveto
          23 -58 -96 18 -76 hhcurveto
          hintmask 01011100
          -170 -111 -89 -124 hvcurveto
          endchar
        </CharString>
        <CharString name="Scommaaccent">
          -61 -19 93 -93 260 206 239 -90 90 hstemhm
          48 195 28 140 -28 206 hintmask 10011010
          48 473 rmoveto
          -118 100 -55 90 -42 vhcurveto
          79 -36 66 -26 -56 vvcurveto
          -23 -14 -26 -38 -17 vhcurveto
          -30 3 -30 5 -29 10 rrcurveto
          hintmask 01011100
          -81 149 rlineto
          -90 hlineto
          hintmask 10011010
          -14 -50 -11 -103 5 -47 -1 -2 rcurveline
          -37 76 109 -21 80 hhcurveto
          149 125 74 135 125 -95 54 -90 42 hvcurveto
          -84 39 -77 25 51 vvcurveto
          22 13 30 31 18 vhcurveto
          33 -2 31 -6 30 -11 rrcurveto
          hintmask 10100010
          49 -130 rlineto
          105 hlineto
          hintmask 10010010
          15 59 6 77 3 62 rrcurveto
          23 -58 -96 18 -76 hhcurveto
          hintmask 10011010
          -170 -111 -89 -124 hvcurveto
          hintmask 10010100
          197 -629 -84 callgsubr
        </CharString>
        <CharString name="T">
          9 0 143 callsubr
          -46 callsubr
          endchar
        </CharString>
        <CharString name="Tcaron">
          9 0 143 callsubr
          -46 callsubr
          -24 828 rmoveto
          -49 callsubr
        </CharString>
        <CharString name="Thorn">
          -22 0 55 -55 70 -70 85 54.5 91.5 186.5 108.5 91 33 hstemhm
          112 210 124 203 hintmask 10011110
          35 650 rmoveto
          -1 -55 78 -14 rlineto
          hintmask 00111110
          -496 vlineto
          hintmask 10011110
          -29 -15 -34 -18 -23 -19 6 -33 rcurveline
          378 hlineto
          1 55 rlineto
          hintmask 01011111
          -89 15 rlineto
          69 vlineto
          86 1 rlineto
          161 1 80 93 95 vvcurveto
          98 -86 99 -167 vhcurveto
          -74 43 hlineto
          27 14 30 17 21 17 -6 33 rcurveline
          -37 -419 rmoveto
          -12 -11 2 3 -12 hvcurveto
          177 vlineto
          74 9 rlineto
          34 -28 16 -36 -34 vvcurveto
          -51 -34 -42 -55 vhcurveto
          endchar
        </CharString>
        <CharString name="U">
          -94 callgsubr
          endchar
        </CharString>
        <CharString name="Uacute">
          -94 callgsubr
          -87 18 -56 callgsubr
          endchar
        </CharString>
        <CharString name="Ucircumflex">
          -94 callgsubr
          -140 41 32 callsubr
          endchar
        </CharString>
        <CharString name="Udieresis">
          -94 callgsubr
          -122 270 -101 callsubr
          endchar
        </CharString>
        <CharString name="Ugrave">
          -94 callgsubr
          -84 256 90 callgsubr
          endchar
        </CharString>
        <CharString name="Uhungarumlaut">
          -94 callgsubr
          -95 42 66 callsubr
        </CharString>
        <CharString name="Umacron">
          90 -20 107 524 55 -32 32 76 109 hstemhm
          83 210 247 142 hintmask 10111100
          7 666 rmoveto
          hintmask 11011100
          312 callsubr
          -291 vlineto
          -226 142 -101 179 148 130 71 238 vhcurveto
          hintmask 10111100
          4 callgsubr
          hintmask 11011100
          -1 -55 80 -14 rlineto
          -302 vlineto
          -85 -11 -64 -23 -32 vhcurveto
          -17 -20 -26 -10 -33 hhcurveto
          -74 -60 47 123 hvcurveto
          hintmask 10111100
          53 callgsubr
          -190 160 51 callgsubr
          endchar
        </CharString>
        <CharString name="Uogonek">
          90 -294 99 175 107 524 55 -32 32 hstemhm
          83 210 -42 134 155 142 hintmask 11011010
          7 666 rmoveto
          hintmask 11101010
          312 callsubr
          -291 vlineto
          -218 132 -102 170 -7 vhcurveto
          hintmask 11010110
          -90 -45 -44 -57 -56 110 callgsubr
          50 52 41 73 47 vhcurveto
          99 31 73 84 179 vvcurveto
          4 callgsubr
          hintmask 11101010
          -1 -55 80 -14 rlineto
          -302 vlineto
          -85 -11 -64 -23 -32 vhcurveto
          -17 -20 -26 -10 -33 hhcurveto
          -74 -60 47 123 hvcurveto
          hintmask 11011010
          53 callgsubr
          endchar
        </CharString>
        <CharString name="Uring">
          90 -20 107 524 55 -32 32 43 51 116 89 hstemhm
          83 210 -35 69 117 69 27 142 hintmask 1011110010000000
          7 666 rmoveto
          hintmask 1101110010000000
          312 callsubr
          -291 vlineto
          -226 142 -101 179 148 130 71 238 vhcurveto
          hintmask 1011110010000000
          4 callgsubr
          hintmask 1101110010000000
          -1 -55 80 -14 rlineto
          -302 vlineto
          -85 -11 -64 -23 -32 vhcurveto
          -17 -20 -26 -10 -33 hhcurveto
          -74 -60 47 123 hvcurveto
          hintmask 1011110010000000
          53 callgsubr
          hintmask 1011101110000000
          17 43 -67 callgsubr
          endchar
        </CharString>
        <CharString name="V">
          55 3 -21 629 55 -32 32 hstemhm
          -4 746 hintmask 10110000
          -3 666 rmoveto
          406 callgsubr
          70 -12 220 -617 66 5 66 7 50 8 rlinecurve
          -1 1 rlineto
          hintmask 10110000
          198 583 29 15 25 15 23 18 rlinecurve
          -6 32 rlineto
          -283 388 callgsubr
          86 -15 -146 -452 rlineto
          -9 hlineto
          -12 143 rlineto
          hintmask 10110000
          -92 299 29 15 26 15 22 18 rlinecurve
          -6 32 rlineto
          endchar
        </CharString>
        <CharString name="W">
          366 3 -21 629 55 -32 32 hstemhm
          4 1049 hintmask 10110000
          811 2 rmoveto
          169 586 28 14 24 15 21 17 rlinecurve
          -6 32 rlineto
          -285 388 callgsubr
          93 -16 -122 -451 rlineto
          -1 hlineto
          -8 171 -100 349 -195 -41 44 -136 -98 -343 rlineto
          -6 hlineto
          -5 150 rlineto
          hintmask 10110000
          -79 291 29 15 26 16 23 18 rlinecurve
          -6 32 rlineto
          -351 388 callgsubr
          67 -12 205 -617 67 5 58 6 50 9 rlinecurve
          56 183 25 118 104 -321 rlineto
          hintmask 10110000
          67 5 58 6 50 9 rrcurveto
          endchar
        </CharString>
        <CharString name="X">
          44 0 55 556 55 -32 32 hstemhm
          -6 755 hintmask 10110000
          431 666 rmoveto
          406 callgsubr
          76 -13 -92 -147 rlineto
          hintmask 10110000
          -103 150 18 11 16 10 15 12 rlinecurve
          -6 32 rlineto
          -337 388 callgsubr
          64 -11 179 -262 -176 -252 -34 -16 -29 -18 -26 -20 232 callsubr
          300 hlineto
          1 55 -76 13 107 164 112 -165 -19 -11 -17 -12 -16 -12 232 callsubr
          350 hlineto
          1 55 -72 12 -195 285 rlineto
          hintmask 10110000
          150 229 33 16 29 17 25 20 rlinecurve
          -6 32 rlineto
          endchar
        </CharString>
        <CharString name="Y">
          -67 callsubr
          endchar
        </CharString>
        <CharString name="Yacute">
          -67 callsubr
          -35 18 -56 callgsubr
          endchar
        </CharString>
        <CharString name="Ydieresis">
          -67 callsubr
          -70 270 -101 callsubr
          endchar
        </CharString>
        <CharString name="Z">
          -72 callgsubr
          endchar
        </CharString>
        <CharString name="Zacute">
          -72 callgsubr
          166 685 -56 callgsubr
          endchar
        </CharString>
        <CharString name="Zcaron">
          -72 callgsubr
          43 861 rmoveto
          -49 callsubr
        </CharString>
        <CharString name="Zdotaccent">
          -72 callgsubr
          264 937 -54 callsubr
        </CharString>
        <CharString name="a">
          87 callgsubr
          227 callsubr
          hintmask 01011100
          -100 callsubr
          hintmask 10111100
          -61 callgsubr
          endchar
        </CharString>
        <CharString name="aacute">
          87 callgsubr
          227 callsubr
          hintmask 01011100
          -100 callsubr
          hintmask 10111100
          -61 callgsubr
          209 606 -59 callgsubr
        </CharString>
        <CharString name="abreve">
          87 callgsubr
          58 171 hstemhm
          24 196 -125 109 93 201 -172 123 hintmask 0101110100000000
          -100 callsubr
          hintmask 1011110100000000
          -61 callgsubr
          hintmask 0101101010000000
          91 625 33 callgsubr
        </CharString>
        <CharString name="acircumflex">
          -102 -15 105 -105 256 -63 63 52.5 451.5 -240 -20 227 callsubr
          hintmask 01001110
          53 callsubr
          104 69 rlineto
          -48 28 42 -26 42 hhcurveto
          143 82 -3 45 rlineto
          -1 -24 -13 -1 -16 hhcurveto
          -16 -8 12 14 hvcurveto
          195 vlineto
          56 -2 30 -10 16 vhcurveto
          54 -41 -53 20 -59 hhcurveto
          -60 -123 -19 -32 -91 hvcurveto
          hintmask 01010110
          -8 -52 6 -60 15 -49 114 1 rcurveline
          29 112 9 5 15 4 13 1 rlinecurve
          21 -11 24 -24 -63 vvcurveto
          -75 vlineto
          -188 -4 rlineto
          hintmask 01001110
          189 callgsubr
          hintmask 10110110
          -61 callgsubr
          -87 431 -8 callsubr
        </CharString>
        <CharString name="acute">
          -380 535 273 hstem
          14 277 vstem
          291 702 -59 callgsubr
        </CharString>
        <CharString name="acutecomb">
          535 273 hstem
          -104 277 vstem
          173 702 -59 callgsubr
        </CharString>
        <CharString name="acutecomb.case">
          684 238 hstem
          -150 315 vstem
          -99 684 -56 callgsubr
          endchar
        </CharString>
        <CharString name="adieresis">
          87 callgsubr
          227 callsubr
          hintmask 01011100
          -100 callsubr
          hintmask 10111100
          -61 callgsubr
          -99 664 -101 callsubr
          endchar
        </CharString>
        <CharString name="ae">
          126 -16 124 -123 105 -105 256 -63 63 -21.5 90 -90 284.5 -91 91 -4 -20 hstemhm
          24 196 -165 741 -497.5 189.5 hintmask 1000010001000000
          65 293 rmoveto
          122 -6 rlineto
          hintmask 0010000010100000
          29 112 9 6 15 3 13 1 rlinecurve
          21 -11 23 -23 1 -63 1 -69 rcurveline
          -190 -4 rlineto
          189 callgsubr
          -71 72 -78 123 20 vhcurveto
          hintmask 1000010000100000
          142 81 61 -69 100 -30 102 19 rlinecurve
          158 96 -28 62 rlineto
          -26 -48 -36 -13 -44 hhcurveto
          -71 -55 35 77 -13 hvcurveto
          hintmask 1000010001000000
          242 -1 59 59 rlineto
          8 hlineto
          170 1 -134 56 -98 hhcurveto
          -49 -50 -15 -27 -42 hvcurveto
          hintmask 1000000101000000
          -22 22 -24 14 -27 2 rrcurveto
          -90 -107 -20 -33 -94 hvcurveto
          hintmask 1000010001000000
          -8 -51 2 -53 11 -50 rrcurveto
          hintmask 0101001010100000
          170 -203 rmoveto
          -10 11 -5 18 13 vvcurveto
          35 38 11 41 vhcurveto
          8 hlineto
          5 -23 7 -21 11 -20 -30 -9 -41 -12 -24 -3 rrcurveto
          310 323 rmoveto
          hintmask 1000101001000000
          39 -5 27 -46 6 -48 rrcurveto
          hintmask 1000100000100000
          -129 -9 rlineto
          hintmask 0101001010100000
          8 44 18 43 31 21 rrcurveto
          endchar
        </CharString>
        <CharString name="agrave">
          87 callgsubr
          227 callsubr
          hintmask 01011100
          -100 callsubr
          hintmask 10111100
          -61 callgsubr
          140 515 38 callsubr
        </CharString>
        <CharString name="amacron">
          87 callgsubr
          77 109 -59 59 227 callsubr
          hintmask 01011011
          -100 callsubr
          hintmask 10111011
          -61 callgsubr
          -133 556 rmoveto
          6 -84 rlineto
          314 hlineto
          hintmask 01010111
          47 50 rlineto
          hintmask 01011011
          -5 59 rlineto
          -249 hlineto
          hintmask 10111011
          -31 -43 -6 -19 -39 hvcurveto
          endchar
        </CharString>
        <CharString name="ampersand">
          29 -29 110 352 46 189 -20 hstemhm
          9 181 -160 177 266 158 hintmask 10110100
          401 281 rmoveto
          18 12 16 11 16 8 rrcurveto
          15 -28 7 -32 -32 vvcurveto
          -45 -15 -42 -33 -28 vhcurveto
          -16 -25 -42 -8 -32 hhcurveto
          -70 -66 35 68 57 48 39 78 -2 hvcurveto
          19 82 rlineto
          hintmask 10101100
          -102 40 rlineto
          -18 21 -8 24 21 vvcurveto
          38 27 35 29 11 vhcurveto
          178 -81 61 153 rlineto
          31 -65 -86 15 -68 hhcurveto
          -167 -86 -91 -86 -48 27 -47 56 -29 hvcurveto
          hintmask 11110100
          -58 -27 -46 -53 -80 vvcurveto
          -140 139 -96 179 192 112 112 143 40 -9 43 -19 40 vhcurveto
          38 -7 32 -19 34 -23 49 133 rcurveline
          -82 88 -133 -47 -182 -115 rrcurveto
          endchar
        </CharString>
        <CharString name="aogonek">
          -102 -258 99 144 105 -105 256 -235 -21 193 63 264 -20 hstemhm
          24 196 38 134 -95 201 hintmask 1010011010000000
          53 callsubr
          hintmask 1001011010000000
          104 69 13 -23 16 -17 18 -13 rlinecurve
          hintmask 1010011100000000
          -75 -43 -37 -52 -52 vvcurveto
          123 callsubr
          51 52 39 73 47 vhcurveto
          hintmask 1010011010000000
          61 35 -3 45 rlineto
          -1 -24 -13 -1 -16 hhcurveto
          -16 -8 12 14 hvcurveto
          195 vlineto
          56 -2 30 -10 16 vhcurveto
          54 -41 -53 20 -59 hhcurveto
          -60 -123 -19 -32 -91 hvcurveto
          -8 -52 6 -60 15 -49 114 1 rcurveline
          29 112 9 5 15 4 13 1 rlinecurve
          21 -11 24 -24 -63 vvcurveto
          -75 vlineto
          -188 -4 rlineto
          189 callgsubr
          hintmask 1100111010000000
          -61 callgsubr
          endchar
        </CharString>
        <CharString name="approxequal">
          -96 127 133 69 133 hstem
          53 484 vstem
          112 270 -62 callsubr
          59 -246 -62 callsubr
          endchar
        </CharString>
        <CharString name="aring">
          87 callgsubr
          42 51 116 89 hstemhm
          24 196 -76 69 84 201 -168 69 hintmask 0101011010000000
          -100 callsubr
          hintmask 1011011010000000
          -61 callgsubr
          hintmask 0101110101000000
          40 437 -67 callgsubr
          endchar
        </CharString>
        <CharString name="asciicircum">
          -200 520 130 hstem
          8 469 vstem
          8 379 rmoveto
          98 -60 132 201 rlineto
          7 hlineto
          139 -200 93 60 -188 270 rlineto
          -98 hlineto
          endchar
        </CharString>
        <CharString name="asciitilde">
          -76 244 133 hstem
          63 484 vstem
          122 185 -62 callsubr
          endchar
        </CharString>
        <CharString name="asterisk">
          -249 662.5 157 -153.5 -20 hstemhm
          336 callgsubr
          16.5 hintmask 10100000
          -19 622 rmoveto
          146 -45 27 72 -16 16 76 -5 88 161 -164 -3 rlineto
          hintmask 01100000
          -1 -152 -112 115 rlineto
          348 -51 rmoveto
          -145 -50 22 -73 179 -30 rlineto
          -64 -98 rmoveto
          -90 123 -64 -42 24 -181 rlineto
          -113 37 rmoveto
          91 125 -60 48 -164 -76 rlineto
          endchar
        </CharString>
        <CharString name="at">
          415 -17 127 -125 104 88 63 44.5 212.5 102 151 hstemhm
          33 189 93 196 77 201 101 188 hintmask 1011111110000000
          506 399 rmoveto
          9 5 14 3 14 1 rrcurveto
          20 -10 25 -24 -63 vvcurveto
          -69 vlineto
          -188 -4 rlineto
          -60 -29 -25 -51 -42 vvcurveto
          -71 72 -77 123 20 vhcurveto
          104 68 29 -49 46 -31 115 7 rlinecurve
          179 33 95 149 157 vvcurveto
          206 -163 222 -352 -344 -186 -210 -229 -127 57 -133 119 -107 vhcurveto
          102 62 rlineto
          -59 84 -30 93 87 vvcurveto
          177 121 152 226 199 122 -118 -168 -70 -21 -81 -35 -36 vhcurveto
          -19 -20 -26 -6 35 vvcurveto
          187 vlineto
          56 -2 30 -10 16 vhcurveto
          47 -32 -63 26 -59 hhcurveto
          -64 -118 -19 -31 -92 hvcurveto
          -7 -52 7 -59 14 -52 114 1 rcurveline
          hintmask 0111111110000000
          49 -196 rmoveto
          -10 11 -5 18 13 vvcurveto
          34 37 12 40 vhcurveto
          -75 vlineto
          -20 -5 -21 -5 -21 -3 rrcurveto
          endchar
        </CharString>
        <CharString name="atilde">
          87 callgsubr
          137 127 227 callsubr
          hintmask 01011110
          -100 callsubr
          hintmask 10111110
          -61 callgsubr
          -125 452 -28 callgsubr
        </CharString>
        <CharString name="b">
          -93 -18 102 279 134 186 -20 hstem
          53 201 115 207 vstem
          195 737 rmoveto
          -80 -4 -75 -13 -64 -22 2 -50 rcurveline
          75 -19 rlineto
          -609 72 callgsubr
        </CharString>
        <CharString name="backslash">
          -266 -126 865 hstem
          -39 454 vstem
          415 -70 rmoveto
          -308 809 -146 -58 306 -807 rlineto
          endchar
        </CharString>
        <CharString name="bar">
          -350 -225 960 hstem
          93 145.5 vstem
          239 -225 rmoveto
          -1 960 rlineto
          -145 -960 hlineto
          endchar
        </CharString>
        <CharString name="braceleft">
          -118 378 callgsubr
          161 214 hintmask 10110000
          481 -24 rmoveto
          hintmask 01110000
          -122 12 16 161 6 53 -24 52 -40 41 rlinecurve
          9 vlineto
          40 40 24 53 -6 52 -16 159 rcurveline
          125 hlineto
          -6 121 rlineto
          -225 -14 -92 -99 -79 vvcurveto
          -94 vlineto
          -69 -7 -41 -86 -6 vhcurveto
          -6 -59 rlineto
          94 -6 5 -39 -81 vvcurveto
          -108 vlineto
          hintmask 10110000
          -70 106 -99 204 -10 vhcurveto
          endchar
        </CharString>
        <CharString name="braceright">
          -116 378 callgsubr
          191 214 hintmask 10110000
          405 34 rmoveto
          108 vlineto
          81 5 39 94 6 vhcurveto
          -6 59 rlineto
          -86 6 -7 41 69 vvcurveto
          94 vlineto
          79 -92 99 -225 14 vhcurveto
          -6 -121 rlineto
          125 hlineto
          -16 -159 -6 -52 25 -53 39 -40 rlinecurve
          -9 vlineto
          -39 -41 -25 -52 6 -53 rrcurveto
          hintmask 01110000
          16 -161 rlineto
          hintmask 10110000
          -122 -12 10 -121 rlineto
          204 10 106 99 70 vvcurveto
          endchar
        </CharString>
        <CharString name="bracketleft">
          -243 -122 834 hstem
          84 200 vstem
          84 712 rmoveto
          -834 324 vlineto
          6 64 -130 38 rlineto
          630 vlineto
          130 38 -6 64 rlineto
          endchar
        </CharString>
        <CharString name="bracketright">
          -243 -122 834 hstem
          156 200 vstem
          26 648 rmoveto
          130 -38 rlineto
          -630 vlineto
          -130 -38 6 -64 rlineto
          324 834 -324 hlineto
          endchar
        </CharString>
        <CharString name="breve">
          -285 549 171 hstem
          24 369 callsubr
          vstem
          255 721 33 callgsubr
        </CharString>
        <CharString name="brokenbar">
          -351 -76 258 176 258 hstem
          93 145 vstem
          238 358 rmoveto
          258 -145 -258 vlineto
          145 -434 rmoveto
          258 -145 -258 vlineto
          endchar
        </CharString>
        <CharString name="bullet">
          -264 81 341 hstem
          49 321 vstem
          199 422 rmoveto
          -78 -44 -58 -63 -14 -91 37 -69 59 -46 81 -28 73 38 47 58 24 74 -26 77 -67 60 -78 34 rrcurveto
          endchar
        </CharString>
        <CharString name="bulletoperator">
          -374 166 218 hstem
          30 219 vstem
          249 288 48 callgsubr
        </CharString>
        <CharString name="c">
          -36 callgsubr
          endchar
        </CharString>
        <CharString name="cacute">
          -36 callgsubr
          -26 615 -59 callgsubr
        </CharString>
        <CharString name="caron">
          -209 541 244 hstem
          29 426 vstem
          29 698 -39 callsubr
        </CharString>
        <CharString name="ccaron">
          -36 callgsubr
          -416 611 -39 callsubr
        </CharString>
        <CharString name="ccedilla">
          -204 -273 217 38 126 -105 -21 29 -21 413 101 0 -20 hstemhm
          8 191 46 140 hintmask 01001011
          444 140 rmoveto
          -20 -40 -35 -12 -36 hhcurveto
          -88 -46 68 93 37 8 60 36 37 hvcurveto
          33 -27 22 -43 21 -59 165 79 rcurveline
          102 -20 -97 49 -98 hhcurveto
          -146 -115 -105 -159 hvcurveto
          hintmask 10010111
          -135 84 -88 106 -27 vhcurveto
          -50 -61 -59 callsubr
          hintmask 00100111
          21 38 17 1 17 2 17 3 rlinecurve
          hintmask 01000111
          148 93 rlineto
          endchar
        </CharString>
        <CharString name="cedilla">
          -385 -273 279 hstem
          128 140 vstem
          167 6 rmoveto
          -73 hlineto
          -63 -77 -59 callsubr
          endchar
        </CharString>
        <CharString name="cent">
          -188 -117 234 369 -20 21 -20 hstemhm
          8 191 19 110 hintmask 10101000
          218 -117 rmoveto
          110 124 hlineto
          142 85 -26 55 rlineto
          -19 -40 -35 -11 -36 hhcurveto
          hintmask 10111000
          -88 -46 64 88 35 8 57 36 35 hvcurveto
          33 -26 22 -40 21 -56 165 75 rcurveline
          hintmask 11001000
          -16 76 -65 45 -75 16 rrcurveto
          111 -110 vlineto
          hintmask 10101000
          -110 vlineto
          hintmask 10111000
          -121 -20 -89 -93 -132 vvcurveto
          hintmask 10101000
          -135 95 -86 115 -19 vhcurveto
          endchar
        </CharString>
        <CharString name="circumflex">
          -232 527 224 hstem
          27 396 vstem
          98 527 -8 callsubr
        </CharString>
        <CharString name="colon">
          -309 1 -21 hstem
          74 208 vstem
          172 202 rmoveto
          -52 -29 -38 -41 -8 -59 182 callgsubr
          rrcurveto
          309 vmoveto
          22 callgsubr
          endchar
        </CharString>
        <CharString name="comma">
          -354 -140 341 hstemhm
          51 219 -150 150 hintmask 11000000
          98 -140 178 callsubr
        </CharString>
        <CharString name="copyright">
          86 -26 83 552 83 hstem
          24 85 81 149 322 84 vstem
          745 330 rmoveto
          203 -165 159 -199 -199 -158 -159 -201 -203 161 -155 200 199 161 155 201 vhcurveto
          -636 -1 rmoveto
          158 124 122 152 152 124 -123 -154 -151 -119 -124 -160 -156 -117 118 154 vhcurveto
          429 -74 rmoveto
          -8 -25 -18 -5 -27 hhcurveto
          -84 -45 47 62 32 12 43 25 27 hvcurveto
          35 -26 15 -32 15 -49 127 61 rcurveline
          94 -35 -64 28 -71 hhcurveto
          -115 -93 -75 -124 -141 120 -67 121 15 hvcurveto
          125 71 rlineto
          endchar
        </CharString>
        <CharString name="currency">
          -173 156 103 191 104 hstem
          65 112 154 112 vstem
          255 156 rmoveto
          34 35 10 19 31 hvcurveto
          57 -62 52 51 -57 62 rlineto
          22 31 14 41 49 vvcurveto
          49 -13 41 -21 31 vhcurveto
          57 61 -56 47 -51 -60 rlineto
          19 -30 -35 9 -37 hhcurveto
          -35 -36 -11 -19 -30 hvcurveto
          -57 63 -55 -49 58 -65 rlineto
          -23 -31 -14 -39 -46 vvcurveto
          -49 15 -44 25 -34 vhcurveto
          -55 -60 54 -49 52 62 rlineto
          -17 28 34 -10 37 hhcurveto
          15 103 rmoveto
          -64 -29 53 52 33 12 32 19 18 hvcurveto
          2 12 9 1 10 hhcurveto
          67 25 -51 -51 -34 -12 -33 -17 -18 hvcurveto
          -3 -11 -13 -1 -8 hhcurveto
          endchar
        </CharString>
        <CharString name="d">
          251 callgsubr
          hintmask 01011010
          604 110 rmoveto
          -1 -24 -13 -1 -16 hhcurveto
          -15 -9 12 14 hvcurveto
          549 vlineto
          17 callsubr
          -133 vlineto
          hintmask 01101110
          60 callgsubr
          rlineto
          hintmask 10101110
          202 callgsubr
          endchar
        </CharString>
        <CharString name="dagger">
          -104 371 98 -98 314 -44 44 hstemhm
          181.5 213 hintmask 10110000
          178 399 callgsubr
          hintmask 01010000
          -43 -61 6 -37 rlineto
          150 hlineto
          23 -551 rlineto
          141 hlineto
          29 551 rlineto
          119 hlineto
          hintmask 10010000
          43 61 -6 37 rlineto
          -150 hlineto
          hintmask 01010000
          11 216 -180 4 rlineto
          endchar
        </CharString>
        <CharString name="daggerdbl">
          -102 140 97 134 98 -98 314 -44 44 hstemhm
          183.5 213 -202 187 -173.5 156.5 hintmask 11011000
          180 399 callgsubr
          hintmask 10100100
          -43 -61 6 -37 rlineto
          150 hlineto
          5 -134 rlineto
          -120 hlineto
          -43 -60 6 -37 rlineto
          hintmask 10100010
          161 hlineto
          14 -320 rlineto
          141 hlineto
          17 320 rlineto
          129 hlineto
          43 60 -6 37 rlineto
          hintmask 10100100
          -161 hlineto
          7 134 rlineto
          119 hlineto
          hintmask 11001000
          43 61 -6 37 rlineto
          -150 hlineto
          hintmask 10101000
          11 216 -180 4 rlineto
          endchar
        </CharString>
        <CharString name="dcaron">
          251 callgsubr
          112 143 hintmask 01011111
          604 110 rmoveto
          -1 -24 -13 -1 -16 hhcurveto
          -15 -9 12 14 hvcurveto
          549 vlineto
          17 callsubr
          -133 vlineto
          hintmask 01101111
          60 callgsubr
          rlineto
          hintmask 10101111
          202 callgsubr
          302 572 rmoveto
          34 callsubr
        </CharString>
        <CharString name="dcroat">
          -57 -17 141 -120 -21 418 98 -3 -20 50 77 80 -20 hstemhm
          8 209 109 201 hintmask 01011101
          617 566 rmoveto
          -6 37 rlineto
          -84 80 hlineto
          17 callsubr
          -26 -67 vlineto
          -43 -40 6 -37 rlineto
          104 hlineto
          hintmask 01010101
          -30 vlineto
          hintmask 01100111
          60 callgsubr
          -3 45 rlineto
          -1 -24 -13 -1 -16 hhcurveto
          -15 -9 12 14 hvcurveto
          hintmask 10011111
          392 47 vlineto
          -271 -402 rmoveto
          -58 -28 60 70 hvcurveto
          hintmask 10100111
          56 18 59 33 32 vhcurveto
          20 -1 20 -4 18 -7 rrcurveto
          -262 vlineto
          hintmask 10011111
          -2 -8 -8 -1 -7 hhcurveto
          endchar
        </CharString>
        <CharString name="degree">
          -309 380 86 109 88 hstem
          30 96 89 99 vstem
          177 466 rmoveto
          -35 -16 30 29 16 5 16 8 12 hvcurveto
          4 9 9 2 8 hhcurveto
          33 17 -31 -30 -17 -5 -16 -10 -12 hvcurveto
          -2 -8 -8 -1 -7 hhcurveto
          -3 -86 rmoveto
          82 58 55 86 80 -62 62 -82 -79 -61 -62 -80 -85 67 -56 77 hvcurveto
          endchar
        </CharString>
        <CharString name="dieresis">
          -127 548 212 hstem
          52 457 vstem
          145 760 -101 callsubr
          endchar
        </CharString>
        <CharString name="divide">
          -89 1 -21 230 297 callsubr
          -250 -142 rmoveto
          -39 -22 -40 -36 -8 -57 19 -35 32 -32 52 -16 46 23 25 39 12 36 -12 38 -35 39 -52 23 rrcurveto
          369 vmoveto
          -39 -22 -40 -37 -8 -56 19 -35 32 -32 52 -16 46 23 25 38 12 37 -12 38 -35 39 -52 23 rrcurveto
          endchar
        </CharString>
        <CharString name="dollar">
          -62 -145 386 -235 -21 24 -21 459 338 -106 -20 24 -20 hstemhm
          48 195 5 143 -8 206 hintmask 1000010100000000
          391 -145 rmoveto
          hintmask 0010010100000000
          133 vlineto
          hintmask 0011001010000000
          113 21 85 70 111 vvcurveto
          125 -95 54 -90 42 vhcurveto
          -84 39 -77 25 51 vvcurveto
          22 13 30 31 18 vhcurveto
          33 -2 31 -6 30 -11 49 -130 rcurveline
          105 hlineto
          hintmask 0010010010000000
          15 59 6 77 3 62 rrcurveto
          hintmask 0010010100000000
          -43 17 -65 15 -61 6 rrcurveto
          hintmask 0011000100000000
          102 -142 vlineto
          hintmask 0010100100000000
          -106 vlineto
          hintmask 1000101010000000
          -123 -24 -77 -79 -103 vvcurveto
          -118 100 -55 90 -42 vhcurveto
          79 -36 66 -26 -56 vvcurveto
          -23 -14 -26 -38 -17 vhcurveto
          -30 3 -30 5 -29 10 -81 149 rcurveline
          -90 hlineto
          hintmask 0100011000000000
          -14 -50 -11 -103 5 -47 -1 -2 rcurveline
          hintmask 0100010100000000
          56 -27 75 -19 67 -8 rrcurveto
          hintmask 1000010100000000
          -130 vlineto
          endchar
        </CharString>
        <CharString name="dotaccent">
          -423 548 212 hstem
          30 199 vstem
          123 760 -54 callsubr
        </CharString>
        <CharString name="dotbelowcomb">
          150 callgsubr
        </CharString>
        <CharString name="dotbelowcomb.case">
          150 callgsubr
        </CharString>
        <CharString name="dotlessi">
          -51 callsubr
          endchar
        </CharString>
        <CharString name="dvKSPLa">
          1545 116 callgsubr
          298 193 141 197 103 195 78 181 66 186 405 callsubr
          -10 callgsubr
          hintmask 101001000010011111110000
          402 callsubr
          hlineto
          -4 -11 135 callgsubr
          hintmask 100010000010011111110000
          -31 callgsubr
          323 hlineto
          hintmask 100100000000011111110000
          270 callgsubr
          hintmask 101000100000011111110000
          -31 callsubr
          5 6 391 callsubr
          -33 -7 -37 1 -43 259 callsubr
          82 25 65 41 37 vhcurveto
          -312 380 callsubr
          405 callsubr
          -103 callsubr
          186 hlineto
          hintmask 101000010001011111110000
          -89 callsubr
          405 callsubr
          -93 callgsubr
          -2266 hlineto
          hintmask 101000010000111111110000
          -93 callsubr
          405 callsubr
          -90 callsubr
          hintmask 110000000000011111110000
          -83 callsubr
          hintmask 101000001000011111110000
          -87 callgsubr
          hintmask 110000000000011111110000
          -44 callgsubr
          405 callsubr
          793 278 15 callgsubr
          217 hlineto
          hintmask 100010000010011111110000
          326 callgsubr
          -142 hlineto
          405 callsubr
          376 -103 rmoveto
          155 callgsubr
          699 hlineto
          hintmask 101000000110011111110000
          -74 vlineto
          -67 -3 -65 -24 -47 -46 -99 81 296 callgsubr
          405 callsubr
          -12 -21 -23 -7 -22 hhcurveto
          hintmask 101001000010011111110000
          -775 190 140 callgsubr
          405 callsubr
          147 callsubr
          374 hlineto
          hintmask 101001000010011111110000
          -175 -61 339 callgsubr
        </CharString>
        <CharString name="dvKSPLa.MAR">
          1574 116 callgsubr
          326 193 142 197 103 195 78 181 -32 186 -18 164 405 callgsubr
          -10 callgsubr
          hintmask 101001000010011111010000
          24 callgsubr
          10 11 -5 -6 7 hvcurveto
          135 callgsubr
          hintmask 100010000010011111010000
          -31 callgsubr
          324 hlineto
          hintmask 100100000000011111010000
          270 callgsubr
          hintmask 101000100000011111100000
          -31 callsubr
          5 5 391 callsubr
          -32 -6 -38 1 -43 259 callsubr
          hintmask 101000001000011111101000
          220 callgsubr
          405 callgsubr
          320 callsubr
          hintmask 101000010001011111010000
          -89 callsubr
          405 callgsubr
          -93 callgsubr
          -2297 hlineto
          hintmask 101000010000111111010000
          -93 callsubr
          405 callgsubr
          -90 callsubr
          hintmask 110000000000011111010000
          -83 callsubr
          hintmask 101000001000011111010000
          -87 callgsubr
          hintmask 110000000000011111010000
          -44 callgsubr
          405 callgsubr
          821 278 15 callgsubr
          218 hlineto
          hintmask 100010000010011111010000
          326 callgsubr
          -143 hlineto
          405 callgsubr
          377 -103 rmoveto
          155 callgsubr
          601 hlineto
          hintmask 101000000110011111010000
          -91 vlineto
          -31 -12 -29 -18 -23 -24 -97 79 296 callgsubr
          405 callgsubr
          -12 -21 -23 -7 -22 hhcurveto
          hintmask 101001000010011111010000
          -804 190 140 callgsubr
          405 callgsubr
          147 callsubr
          402 hlineto
          hintmask 101001000010011111010000
          -175 -89 339 callgsubr
        </CharString>
        <CharString name="e">
          -98 callsubr
          endchar
        </CharString>
        <CharString name="eacute">
          -98 callsubr
          -49 611 -59 callgsubr
        </CharString>
        <CharString name="ecaron">
          -98 callsubr
          -439 607 -39 callsubr
        </CharString>
        <CharString name="ecircumflex">
          -98 callsubr
          -345 436 -8 callsubr
        </CharString>
        <CharString name="edieresis">
          -98 callsubr
          -357 669 -101 callsubr
          endchar
        </CharString>
        <CharString name="edotaccent">
          -98 callsubr
          -224 669 -54 callsubr
        </CharString>
        <CharString name="egrave">
          -98 callsubr
          -118 520 38 callsubr
        </CharString>
        <CharString name="eight">
          -92 -22 85 512 93 hstemhm
          36 185 -163 175 136 159 -155 182 hintmask 11011000
          528 496 rmoveto
          88 -83 84 -147 -155 -85 -93 -99 -62 34 -46 50 -37 vhcurveto
          hintmask 11100100
          -68 -39 -38 -63 -65 vvcurveto
          -116 118 -70 145 142 114 69 123 83 -51 55 -67 44 vhcurveto
          hintmask 11011000
          63 34 28 58 52 vvcurveto
          -295 18 rmoveto
          16 6 21 15 16 vhcurveto
          6 13 13 2 12 hhcurveto
          45 32 -33 -47 -25 -9 -32 -28 -26 hvcurveto
          -56 31 -43 26 45 vvcurveto
          hintmask 11100100
          78 -451 rmoveto
          -58 -32 41 49 34 16 38 33 29 hvcurveto
          75 -44 28 -28 -53 vvcurveto
          -23 -5 -14 -14 -22 vhcurveto
          -5 -16 -15 -2 -12 hhcurveto
          endchar
        </CharString>
        <CharString name="ellipsis">
          260 1 -21 hstem
          99 208 100 208 100 208 cntrmask 01110000
          197 202 rmoveto
          22 callgsubr
          308 hmoveto
          22 callgsubr
          308 hmoveto
          22 callgsubr
          endchar
        </CharString>
        <CharString name="emacron">
          -167 -17 125 279 callgsubr
          89 -89 284.5 -91 91 58 337 callgsubr
          8 188 128 179 hintmask 11011011
          252 413 rmoveto
          39 -5 27 -46 6 -49 -128 -9 rcurveline
          8 45 18 44 30 20 rrcurveto
          209 -266 rmoveto
          -26 -48 -37 -13 -42 hhcurveto
          hintmask 10101011
          -72 -54 38 74 -13 hvcurveto
          249 -1 59 59 rlineto
          170 1 -134 56 -98 hhcurveto
          -134 -130 -103 -165 -181 159 -97 164 31 hvcurveto
          158 96 rlineto
          -391 561 rmoveto
          6 -84 rlineto
          314 hlineto
          hintmask 10100111
          47 50 rlineto
          hintmask 10101011
          103 callgsubr
        </CharString>
        <CharString name="emdash">
          364 217 111 hstem
          35 959 vstem
          35 302 rmoveto
          6 -85 rlineto
          906 hlineto
          47 53 -5 58 rlineto
          -841 hlineto
          -31 -43 -7 -19 -39 hvcurveto
          endchar
        </CharString>
        <CharString name="endash">
          -97 217 111 hstem
          35 498 vstem
          35 302 rmoveto
          6 -85 rlineto
          445 hlineto
          47 53 -5 58 rlineto
          -380 hlineto
          -31 -43 -7 -19 -39 hvcurveto
          endchar
        </CharString>
        <CharString name="enspace">
          -183 endchar
        </CharString>
        <CharString name="eogonek">
          -153 7 -21 233.5 89 -89 284.5 -91 91 hstemhm
          8 188 -17 134 11 179 hintmask 11011010
          252 413 rmoveto
          39 -5 27 -46 6 -49 -128 -9 rcurveline
          8 45 18 44 30 20 rrcurveto
          209 -266 rmoveto
          -26 -48 -37 -13 -42 hhcurveto
          hintmask 10101000
          -72 -54 38 74 -13 hvcurveto
          249 -1 59 59 rlineto
          170 1 -134 56 -98 hhcurveto
          -134 -130 -103 -165 -144 101 -91 124 -15 hvcurveto
          hintmask 10100100
          -36 -34 -18 -36 -36 vvcurveto
          -68 65 -60 95 12 vhcurveto
          130 71 -26 54 rlineto
          -75 -44 -55 18 53 vvcurveto
          53 57 41 79 50 vhcurveto
          40 25 rlineto
          endchar
        </CharString>
        <CharString name="equal">
          -107 116 97 91 97 hstem
          52 472 vstem
          52 213 rmoveto
          -97 472 97 vlineto
          -472 188 rmoveto
          -97 472 97 vlineto
          endchar
        </CharString>
        <CharString name="eth">
          -126 -28 102 hstem
          16 207 139 190 vstem
          194 711 rmoveto
          15 -23 13 -22 12 -21 -86 -36 rcurveline
          6 -45 76 -51 59 23 12 -28 10 -26 8 -24 rlinecurve
          11 -26 -28 6 -29 hhcurveto
          -110 -110 -81 -154 -177 143 -91 134 142 117 104 179 105 -40 125 -60 114 hvcurveto
          71 28 -57 114 -80 -33 -17 25 -18 24 -19 22 rlinecurve
          -109 -554 rmoveto
          60 19 63 29 28 vhcurveto
          34 -7 23 -13 25 -21 21 -94 -14 -119 -40 -48 rrcurveto
          -67 1 -30 75 75 vvcurveto
          endchar
        </CharString>
        <CharString name="exclam">
          -317 1 -21 737 18 hstem
          66 235 vstem
          251 266 rmoveto
          50 449 -59 27 -110 -2 -66 -23 rlinecurve
          48 -451 rlineto
          -33 -193 rmoveto
          182 callgsubr
          -52 -29 -38 -41 -8 -59 rrcurveto
          endchar
        </CharString>
        <CharString name="exclamdown">
          -317 -189 -21 449 64 hstem
          66 235 vstem
          251 239 rmoveto
          50 -449 -59 -27 -110 2 -66 23 rlinecurve
          48 451 rlineto
          -33 193 rmoveto
          24 46 38 30 53 17 47 -24 31 -38 15 -48 -15 -49 -44 -40 -51 -23 -52 29 -38 41 -8 59 rrcurveto
          endchar
        </CharString>
        <CharString name="f">
          -278 321 callgsubr
          hintmask 00101000
          93 callgsubr
          hlineto
          hintmask 01011000
          -282 vlineto
          hintmask 10011000
          -44 callsubr
          endchar
        </CharString>
        <CharString name="f_b.liga">
          339 -18 102 -84 49 -49 68 281 125 406 callsubr
          186 -20 394 callsubr
          171 201 115 207 hintmask 0011011100000000
          597 737 rmoveto
          -293 100 callsubr
          -282 hlineto
          hintmask 0101011100000000
          -23 -9 -22 -11 -21 -13 1 -35 rcurveline
          349 hlineto
          137 callgsubr
          225 -29 rlineto
          hintmask 1000111110000000
          -564 72 callgsubr
        </CharString>
        <CharString name="f_f.liga">
          127 321 callgsubr
          203 202 hintmask 00101100
          101 callgsubr
          hintmask 01011100
          346 callsubr
          hintmask 10011100
          -44 callsubr
          hintmask 00101100
          507 175 64 callsubr
          hintmask 01011100
          346 callsubr
          hintmask 10011100
          -44 callsubr
          endchar
        </CharString>
        <CharString name="f_h.liga">
          377 0 49 -49 737 -388 125 24 -20 205 -20 394 callsubr
          203 201 97 201 hintmask 10011111
          366 hmoveto
          1 49 -27 20 -28 16 -28 12 rlinecurve
          hintmask 10101111
          252 53 vlineto
          52 69 -1 56 rlineto
          -106 hlineto
          -52 139 257 -33 rlineto
          -509 vlineto
          -25 -9 -34 callgsubr
          327 hlineto
          142 callgsubr
          hintmask 10011111
          68 callsubr
          -44 -15 -44 -24 -44 -32 rrcurveto
          256 vlineto
          hintmask 01000111
          -59 54 rlineto
          -3 hlineto
          -322 100 callsubr
          hlineto
          hintmask 10011111
          -282 vlineto
          -23 -9 -22 -11 -21 -13 1 -35 rcurveline
          endchar
        </CharString>
        <CharString name="f_i.liga">
          88 0 49 415 10 29 -20 394 callsubr
          202 201 hintmask 10111000
          93 callgsubr
          -282 hlineto
          -23 -9 -22 -11 -21 -13 1 -35 rcurveline
          357 hlineto
          1 49 -29 19 -31 14 -31 12 rlinecurve
          hintmask 11111000
          255 61 vlineto
          52 69 -1 56 rlineto
          -114 hlineto
          -74 160 59 -31 49 -35 42 -41 rlinecurve
          343 137 49 callgsubr
          hintmask 10111000
          362 vlineto
          -59 53 -76 callsubr
          -324 199 callgsubr
          endchar
        </CharString>
        <CharString name="f_j.liga">
          68 -201 -21 222 49 -49 68 -68 751 -287 10 29 -20 394 callsubr
          203 201 hintmask 10010011
          93 callgsubr
          hlineto
          hintmask 10100111
          -282 vlineto
          hintmask 11001111
          -44 callsubr
          344 137 231 callgsubr
          hintmask 11000111
          -73 -161 rmoveto
          hintmask 11001111
          193 callgsubr
          hintmask 11000111
          489 vlineto
          endchar
        </CharString>
        <CharString name="f_k.liga">
          376 -3 48 -45 49 -49 737 -388 125 29 -20 200 -20 394 callsubr
          202 201 hintmask 00100011
          366 hmoveto
          hintmask 01010011
          137 callgsubr
          256 -33 rlineto
          hintmask 00100011
          -508 199 callgsubr
          276 184 hlineto
          hintmask 10001111
          85 -135 14 -21 11 -17 15 -14 rlinecurve
          214 hlineto
          4 48 -18 10 -15 11 -13 10 rlinecurve
          -127 176 142 178 -51 73 -80 -3 -77 -13 -64 -23 rlinecurve
          2 -49 54 -13 -96 -131 rlineto
          412 vlineto
          hintmask 00100011
          -59 54 rlineto
          -1 hlineto
          -1 hlineto
          -322 100 callsubr
          -282 hlineto
          -23 -9 -22 -11 -21 -13 1 -35 rcurveline
          endchar
        </CharString>
        <CharString name="f_l.liga">
          90 0 49 -49 737 -388 125 209 -20 394 callsubr
          201 201 hintmask 10111100
          366 hmoveto
          137 callgsubr
          255 -33 rlineto
          -508 199 callgsubr
          347 hlineto
          1 65 callgsubr
          595 vlineto
          hintmask 01001100
          -59 54 rlineto
          -1 hlineto
          -322 100 callsubr
          hlineto
          hintmask 10111100
          -282 vlineto
          -23 -9 -22 -11 -21 -13 1 -35 rcurveline
          endchar
        </CharString>
        <CharString name="f_t.liga">
          143 0 49 -49 68 -68 751 -747 -21 366 125 394 callsubr
          196 201 hintmask 00100110
          101 callgsubr
          hintmask 01001110
          346 callsubr
          hintmask 10001110
          -44 callsubr
          438 -398 75 callgsubr
          35 callsubr
          hintmask 00011110
          246 callgsubr
          endchar
        </CharString>
        <CharString name="five">
          -101 271 137 143 99 hstem
          370 181 vstem
          520 650 rmoveto
          -64 -1 rlineto
          1 -366 vlineto
          -29 -331 55 -60 rlineto
          9 30 26 3 22 hhcurveto
          102 74 -35 -74 -22 -6 -26 -28 -29 hvcurveto
          -72 18 -99 55 -78 69 -57 -182 rcurveline
          -47 79 101 -22 77 hhcurveto
          171 93 105 117 139 -131 69 -113 2 hvcurveto
          -23 -25 0 -7 -20 hvcurveto
          12 153 97 -6 27 -113 rlineto
          123 hlineto
          14 49 12 117 -4 49 rrcurveto
          endchar
        </CharString>
        <CharString name="four">
          -53 0 264 -113 113 406 -20 hstemhm
          309 193 hintmask 10110000
          570 hmoveto
          hintmask 01110000
          2 55 -70 13 rlineto
          83 81 vlineto
          32 31 -5 90 -108 -2 rlineto
          382 vlineto
          -110 8 -38 10 -345 -414 39 -105 rlineto
          261 hlineto
          hintmask 10110000
          -62 vlineto
          -41 -15 -52 -20 -29 -22 6 -32 rcurveline
          116 373 rmoveto
          -108 vlineto
          -131 -2 136 196 rlineto
          endchar
        </CharString>
        <CharString name="four.dnom">
          -339 310 callsubr
          hstemhm
          158 109 hintmask 10110000
          303 hmoveto
          30 vlineto
          hintmask 01110000
          -20 callgsubr
          hlineto
          hintmask 10110000
          -23 vlineto
          48 callsubr
        </CharString>
        <CharString name="four.numr">
          -339 334 30 40 59.5 206.5 -20 hstem
          158 109 vstem
          303 334 rmoveto
          30 vlineto
          -20 callgsubr
          -23 hlineto
          48 callsubr
        </CharString>
        <CharString name="foursuperior">
          -339 415 30 40 59.5 hstem
          158 109 vstem
          303 415 rmoveto
          30 vlineto
          -20 callgsubr
          -23 hlineto
          48 callsubr
        </CharString>
        <CharString name="fraction">
          -479 10 688 hstem
          -205 663 vstem
          -133 10 155 callsubr
          endchar
        </CharString>
        <CharString name="g">
          173 callgsubr
          hstemhm
          25 193 105 193 hintmask 10011011
          105 callsubr
          hintmask 10010111
          118 callsubr
          hintmask 10100111
          21 callgsubr
          hintmask 10011011
          163 87 85 90 hvcurveto
          hintmask 11000111
          1 callsubr
          endchar
        </CharString>
        <CharString name="gbreve">
          173 callgsubr
          37 171 hstemhm
          25 193 -126 369 callsubr
          -123 193 hintmask 1001100100100000
          105 callsubr
          hintmask 1001011100100000
          118 callsubr
          hintmask 1010011101000000
          21 callgsubr
          hintmask 1001100100100000
          163 87 85 90 hvcurveto
          hintmask 1100011100100000
          1 callsubr
          hintmask 1001011011000000
          53 824 33 callgsubr
        </CharString>
        <CharString name="gcommaaccent">
          173 callgsubr
          hstemhm
          25 193 39 140 -74 193 hintmask 1001100010000000
          105 callsubr
          hintmask 1001011010000000
          118 callsubr
          hintmask 1010011100000000
          21 callgsubr
          hintmask 1001100010000000
          163 87 85 90 hvcurveto
          hintmask 1100011010000000
          1 callsubr
          hintmask 1001011100000000
          -39 812 -84 callgsubr
        </CharString>
        <CharString name="germandbls">
          -2 0 71 -69 -21 592 114 hstemhm
          82 201 100 186 -91 190 hintmask 01111000
          82 477 rmoveto
          -13 vlineto
          -32 -18 -29 -22 -26 -26 1 -56 rcurveline
          86 hlineto
          hintmask 10111000
          -271 vlineto
          -25 -9 -26 -12 -23 -15 1 -35 rcurveline
          274 437 hlineto
          -4 124 21 12 34 3 20 -3 rlinecurve
          57 -62 -36 -100 -51 -68 rrcurveto
          hintmask 01110100
          16 -124 138 -7 -73 vvcurveto
          -13 -5 -11 -11 -13 vhcurveto
          -36 10 -38 26 -29 29 -42 -163 rcurveline
          -14 47 56 -9 45 hhcurveto
          115 88 59 102 135 -156 38 -14 66 hvcurveto
          hintmask 01111000
          49 41 22 40 44 vvcurveto
          94 -98 87 -136 -75 -178 -42 -168 vhcurveto
          endchar
        </CharString>
        <CharString name="grave">
          -380 535 273 hstem
          12 277 vstem
          289 611 38 callsubr
        </CharString>
        <CharString name="gravecomb">
          535 273 hstem
          -173 277 vstem
          104 611 38 callsubr
        </CharString>
        <CharString name="gravecomb.case">
          684 238 hstem
          -163 315 vstem
          -97 922 90 callgsubr
          endchar
        </CharString>
        <CharString name="greater">
          -105 15 -21 506 -20 hstem
          348.5 172.5 vstem
          349 246 rmoveto
          -1 -6 -291 -143 54 -103 409 208 2 70 -410 228 -51 -99 rlineto
          endchar
        </CharString>
        <CharString name="greaterequal">
          -89 0 97 hstem
          52 490 vstem
          68 532 rmoveto
          310 -152 -1 -6 -309 -139 47 -86 409 188 8 70 -415 208 rlineto
          -65 -615 rmoveto
          490 97 -490 hlineto
          endchar
        </CharString>
        <CharString name="guillemotleft">
          -26 29 451 hstem
          52 553 vstem
          52 207 282 callgsubr
          278 -92 282 callgsubr
          endchar
        </CharString>
        <CharString name="guillemotright">
          -26 29 451 hstem
          52 553 vstem
          605 299 280 callsubr
          -278 92 280 callsubr
          endchar
        </CharString>
        <CharString name="guilsinglleft">
          -304 29 451 hstem
          52 275 vstem
          52 207 rmoveto
          176 -178 99 70 -96 154 89 162 -92 65 -176 -181 rlineto
          endchar
        </CharString>
        <CharString name="guilsinglright">
          -304 29 451 hstem
          52 275 vstem
          151 480 rmoveto
          -92 -65 89 -162 -96 -154 99 -70 176 178 rlineto
          92 vlineto
          endchar
        </CharString>
        <CharString name="h">
          -25 335 callsubr
          205 -20 hstem
          83 201 97 201 vstem
          336 hmoveto
          142 callgsubr
          68 callsubr
          -44 -15 -44 -24 -44 -32 rrcurveto
          256 vlineto
          17 callsubr
          -558 vlineto
          -25 -9 -34 callgsubr
          endchar
        </CharString>
        <CharString name="hungarumlaut">
          -138 535 249 hstem
          30 476 vstem
          116 535 6 callgsubr
        </CharString>
        <CharString name="hyphen">
          89 callgsubr
        </CharString>
        <CharString name="hyphen.deva">
          89 callgsubr
        </CharString>
        <CharString name="i">
          -317 0 49 -49 72 431 389 callsubr
          hintmask 10110000
          296 664 49 callgsubr
          362 vlineto
          -59 53 -76 callsubr
          hintmask 01110000
          -324 vlineto
          hintmask 10110000
          -26 -10 -34 callgsubr
          endchar
        </CharString>
        <CharString name="iacute">
          -51 callsubr
          335 696 -59 callgsubr
        </CharString>
        <CharString name="icircumflex">
          -334 0 49 -49 71 -71 745 -250 389 callsubr
          hintmask 10011000
          6 callsubr
          hintmask 01011000
          -317 vlineto
          hintmask 10011000
          -25 -9 -34 callgsubr
          39 521 rmoveto
          124 115 141 -110 60 57 rlineto
          hintmask 00101000
          -133 162 rlineto
          -127 hlineto
          -136 -170 rlineto
          endchar
        </CharString>
        <CharString name="idieresis">
          -51 callsubr
          27 754 -101 callsubr
          endchar
        </CharString>
        <CharString name="igrave">
          -51 callsubr
          266 605 38 callsubr
        </CharString>
        <CharString name="imacron">
          -317 0 49 -49 71 424 -20 89 337 callgsubr
          86 201 hintmask 10110100
          13 648 rmoveto
          6 -84 rlineto
          287 hlineto
          hintmask 10101100
          47 50 rlineto
          hintmask 10110100
          -5 59 rlineto
          -222 hlineto
          -31 -43 -6 -19 -39 hvcurveto
          328 -648 rmoveto
          95 callsubr
          358 vlineto
          -59 53 -76 callsubr
          hintmask 01110100
          -317 vlineto
          hintmask 10110100
          -25 -9 -34 callgsubr
          endchar
        </CharString>
        <CharString name="infinity">
          92 131 142 -141 147 119 136 -125 127 hstemhm
          30 137 459 127 hintmask 10011100
          30 322 rmoveto
          hintmask 01011100
          -130 98 -60 80 70 56 47 64 44 vhcurveto
          hintmask 10101100
          -60 49 55 -52 78 hhcurveto
          88 105 66 141 122 -79 74 -86 -70 -54 -51 -59 -43 hvcurveto
          hintmask 10011100
          56 -51 -62 56 -81 hhcurveto
          -97 -100 -82 -132 hvcurveto
          hintmask 01011100
          228 -43 rmoveto
          -51 -40 39 57 12 4 7 4 8 hvcurveto
          50 28 51 -55 52 -69 rrcurveto
          -18 -21 -25 -9 -24 hhcurveto
          hintmask 10101100
          297 119 rmoveto
          45 26 -41 -34 -13 -3 -17 -10 -13 hvcurveto
          -49 -26 -46 53 -48 59 rrcurveto
          20 29 31 12 25 hhcurveto
          endchar
        </CharString>
        <CharString name="integral">
          -208 -179 930 hstem
          -33 541 vstem
          146 -179 rmoveto
          -48 -1 -53 18 -78 32 94 175 rcurveline
          50 -50 51 -45 65 -20 -185 524 rcurveline
          157 152 139 136 1 vhcurveto
          55 47 -14 -35 76 hvcurveto
          -94 -175 -49 50 -51 44 -65 21 rlinecurve
          185 -524 rlineto
          -157 -153 -140 -135 vhcurveto
          endchar
        </CharString>
        <CharString name="iogonek">
          -317 -285 99 -29 29 -8 -21 215 72 431 -20 hstemhm
          53 134 -106 201 hintmask 00111010
          296 664 49 callgsubr
          362 vlineto
          -59 53 -76 callsubr
          -324 199 callgsubr
          205 hlineto
          hintmask 10011100
          -106 -47 -52 -62 -61 vvcurveto
          -68 65 -59 96 12 vhcurveto
          hintmask 00111010
          129 70 rlineto
          hintmask 01011100
          -25 55 rlineto
          -75 -45 -56 18 53 vvcurveto
          49 50 39 70 46 vhcurveto
          endchar
        </CharString>
        <CharString name="j">
          -337 -201 -21 725 -20 hstem
          82 201 vstem
          297 664 231 callgsubr
          -73 -161 rmoveto
          193 callgsubr
          489 vlineto
          endchar
        </CharString>
        <CharString name="k">
          323 callsubr
          28 callgsubr
          endchar
        </CharString>
        <CharString name="kcommaaccent">
          323 callsubr
          3 140 28 callgsubr
          hintmask 01110100
          -63 -620 -84 callgsubr
        </CharString>
        <CharString name="l">
          79 callsubr
          endchar
        </CharString>
        <CharString name="lacute">
          79 callsubr
          69 769 -56 callgsubr
          endchar
        </CharString>
        <CharString name="lcaron">
          184 callsubr
          110 143 hintmask 10111000
          353 hmoveto
          1 65 callgsubr
          595 vlineto
          17 callsubr
          hintmask 01111000
          -557 vlineto
          hintmask 10111000
          -26 -10 -34 callgsubr
          352 686 rmoveto
          34 callsubr
        </CharString>
        <CharString name="lcommaaccent">
          184 callsubr
          -130 140 hintmask 10110000
          353 hmoveto
          1 65 callgsubr
          595 vlineto
          17 callsubr
          hintmask 01110000
          -557 vlineto
          hintmask 10101000
          -26 -10 -34 callgsubr
          120 -156 -84 callgsubr
        </CharString>
        <CharString name="less">
          -105 15 -21 506 -20 hstem
          57 172.5 vstem
          56 272 rmoveto
          2 -70 409 -208 54 103 -291 143 -1 6 288 155 -51 99 rlineto
          endchar
        </CharString>
        <CharString name="lessequal">
          -89 0 97 hstem
          52 490 vstem
          62 407 rmoveto
          8 -70 409 -188 47 86 -309 139 -1 6 310 152 -48 83 rlineto
          -426 -518 rmoveto
          -97 490 97 vlineto
          endchar
        </CharString>
        <CharString name="logicalnot">
          -91 0 282 -110 110 hstemhm
          423 117 hintmask 10100000
          52 282 rmoveto
          hintmask 01100000
          -110 371 vlineto
          hintmask 10100000
          -172 117 282 vlineto
          endchar
        </CharString>
        <CharString name="lslash">
          -227 0 49 -49 72 418 -20 36 -20 197 -20 hstemhm
          105 201 hintmask 10011100
          3 327 rmoveto
          36 -72 66 32 rlineto
          hintmask 01011100
          -215 vlineto
          hintmask 10101100
          -26 -10 -34 callgsubr
          347 hlineto
          1 65 callgsubr
          298 vlineto
          88 43 rlineto
          61 vlineto
          hintmask 10011100
          -27 16 -61 -30 rlineto
          207 vlineto
          17 callsubr
          -252 vlineto
          endchar
        </CharString>
        <CharString name="m">
          285 335 callsubr
          25 -20 hstemhm
          83 201 96 201 96 201 cntrmask 00011100
          hintmask 10111100
          380 hmoveto
          255 hlineto
          2 49 -18 13 -19 12 -19 10 rlinecurve
          210 vlineto
          30 0 23 -1 17 vhcurveto
          9 41 callsubr
          278 vlineto
          2 49 -23 17 -28 14 -28 11 rlinecurve
          203 vlineto
          hintmask 11011100
          68 callsubr
          -46 -16 -48 -27 -47 -35 rrcurveto
          2 -1 2 -1 1 vhcurveto
          -41 64 -74 11 -39 -2 rrcurveto
          hintmask 10111100
          -43 -15 -44 -24 -44 -32 rrcurveto
          15 vlineto
          -59 61 -76 callsubr
          -325 vlineto
          -25 -9 -34 callgsubr
          329 hlineto
          95 callsubr
          280 vlineto
          9 3 9 1 8 1 rrcurveto
          46 3 24 -36 -55 vvcurveto
          endchar
        </CharString>
        <CharString name="macron">
          -229 568 337 callgsubr
          62 367 hintmask 10100000
          62 98 callsubr
        </CharString>
        <CharString name="minus">
          -89 210 297 callsubr
          endchar
        </CharString>
        <CharString name="multiply">
          -130 17 446 hstem
          55 443 vstem
          279 319 rmoveto
          -142 144 -82 -81 142 -144 -140 -142 79 -78 139 142 141 -143 82 82 -142 142 141 142 -80 78 rlineto
          endchar
        </CharString>
        <CharString name="n">
          -68 callsubr
          endchar
        </CharString>
        <CharString name="nacute">
          -68 callsubr
          497 696 -59 callgsubr
        </CharString>
        <CharString name="ncaron">
          -68 callsubr
          107 692 -39 callsubr
        </CharString>
        <CharString name="ncommaaccent">
          -17 335 callsubr
          25 -20 hstemhm
          83 201 -15 69.5 -42.5 140 -54 201 hintmask 10101010
          338 hmoveto
          1 49 rlineto
          hintmask 11010010
          -18 13 -18 12 -19 10 rrcurveto
          280 vlineto
          10 41 callsubr
          271 vlineto
          2 65 callgsubr
          206 vlineto
          68 callsubr
          rrcurveto
          hintmask 10110010
          -44 -15 -45 -25 -44 -32 rrcurveto
          16 vlineto
          -59 61 -76 callsubr
          -325 vlineto
          -25 -9 -34 callgsubr
          hintmask 10101010
          261 -156 rmoveto
          hintmask 10110100
          39 -28 -6 -56 -38 -50 56 -41 rcurveline
          77 41 108 164 -130 57 rrcurveto
          hintmask 10101010
          -108 -46 rlineto
          endchar
        </CharString>
        <CharString name="nine">
          -91 224 446 -106 106 hstemhm
          26 201 150 189 hintmask 10110000
          227 459 rmoveto
          hintmask 01110000
          47 16 46 29 12 vhcurveto
          75 9 30 -104 -104 vvcurveto
          -103 -29 -107 -63 -35 vhcurveto
          -205 58 31 -188 rlineto
          262 -23 193 168 229 vvcurveto
          hintmask 10110000
          171 -107 135 -179 -155 -99 -102 -127 -165 168 -96 145 64 vhcurveto
          -10 104 rlineto
          -67 -13 -35 59 65 vvcurveto
          endchar
        </CharString>
        <CharString name="notequal">
          -107 15 -21 122 97 91 97 95 -20 hstem
          52 472 vstem
          168 -6 rmoveto
          75 122 rlineto
          281 97 -221 hlineto
          56 91 rlineto
          165 97 -105 hlineto
          59 95 -50 28 -76 -123 rlineto
          -300 -97 240 hlineto
          -56 -91 rlineto
          -184 -97 124 hlineto
          -58 -93 rlineto
          endchar
        </CharString>
        <CharString name="ntilde">
          -17 335 callsubr
          25 -20 139 127 hstemhm
          83 201 98 201 hintmask 10111100
          338 hmoveto
          95 callsubr
          280 vlineto
          10 41 callsubr
          271 vlineto
          2 65 callgsubr
          206 vlineto
          hintmask 11011100
          68 callsubr
          rrcurveto
          hintmask 10111100
          -44 -15 -45 -25 -44 -32 rrcurveto
          16 vlineto
          -59 61 -76 callsubr
          -325 vlineto
          -25 -9 -34 callgsubr
          163 542 -28 callgsubr
        </CharString>
        <CharString name="numbersign">
          -62 -12 536.5 -515.5 -21 33 -21 117 95 101 94 hstemhm
          52 488 -459 488 hintmask 00111100
          125 hmoveto
          hintmask 01011100
          99 -12 20 129 rlineto
          95 hlineto
          hintmask 00111100
          -18 -117 rlineto
          hintmask 01011100
          99 -12 20 129 rlineto
          100 95 -86 hlineto
          hintmask 00111010
          16 101 rlineto
          99 94 -85 318 callsubr
          -95 318 callsubr
          -106 -94 92 hlineto
          -16 -101 rlineto
          hintmask 00111100
          -105 -95 91 hlineto
          210 95 rmoveto
          -95 hlineto
          16 101 rlineto
          95 hlineto
          endchar
        </CharString>
        <CharString name="o">
          161 callgsubr
          hstem
          200 callsubr
          vstem
          -92 callgsubr
          endchar
        </CharString>
        <CharString name="oacute">
          161 callgsubr
          hstem
          200 callsubr
          vstem
          -92 callgsubr
          165 618 -59 callgsubr
        </CharString>
        <CharString name="ocircumflex">
          161 callgsubr
          hstem
          200 callsubr
          vstem
          -92 callgsubr
          -131 443 -8 callsubr
        </CharString>
        <CharString name="odieresis">
          161 callgsubr
          hstem
          200 callsubr
          vstem
          -92 callgsubr
          -143 676 -101 callsubr
          endchar
        </CharString>
        <CharString name="oe">
          156 -20 98 -94 124 279 callgsubr
          89 87.5 108 -91 91 hstemhm
          8 202 437 179 hintmask 10110110
          275 78 rmoveto
          -48 -17 70 90 71 9 57 15 23 hvcurveto
          5 7 10 2 9 hhcurveto
          47 17 -73 -94 -71 -8 -59 -20 -17 hvcurveto
          -3 -8 -6 -1 -7 hhcurveto
          hintmask 01101110
          300 335 rmoveto
          39 -5 27 -46 6 -49 -131 -9 rcurveline
          9 46 20 43 30 20 rrcurveto
          80 -424 rmoveto
          157 96 -28 62 rlineto
          -26 -48 -35 -13 -46 hhcurveto
          -76 -53 38 74 -12 hvcurveto
          253 -1 59 59 rlineto
          hintmask 10110110
          170 1 -134 56 -98 hhcurveto
          -59 -57 -20 -37 -47 hvcurveto
          38 -46 -59 19 -60 hhcurveto
          -134 -125 -92 -167 -169 129 -96 135 61 58 20 37 45 hvcurveto
          hintmask 01101110
          59 -43 79 -20 81 15 rrcurveto
          endchar
        </CharString>
        <CharString name="ogonek">
          -366 -260 319 -318 99 hstemhm
          23 134 hintmask 10100000
          274 59 rmoveto
          -168 -47 -83 -79 -77 vvcurveto
          hintmask 01100000
          123 callsubr
          53 57 41 79 50 vhcurveto
          endchar
        </CharString>
        <CharString name="ograve">
          161 callgsubr
          hstem
          200 callsubr
          vstem
          -92 callgsubr
          96 527 38 callsubr
        </CharString>
        <CharString name="ohungarumlaut">
          161 callgsubr
          hstem
          200 callsubr
          vstem
          -92 callgsubr
          -117 451 6 callgsubr
        </CharString>
        <CharString name="omacron">
          161 callgsubr
          58 337 callgsubr
          200 callsubr
          hintmask 11101100
          -92 callgsubr
          -177 568 rmoveto
          6 -84 rlineto
          314 hlineto
          hintmask 11011100
          47 50 rlineto
          hintmask 11101100
          103 callgsubr
        </CharString>
        <CharString name="one">
          -214 0 55 -55 76 -76 90 580 -20 hstemhm
          159 201 hintmask 01011000
          360 609 rmoveto
          -83 61 -272 -160 37 -72 117 46 rlineto
          hintmask 00111000
          -394 vlineto
          hintmask 01011000
          -48 -14 -58 -22 -30 -22 6 -32 rcurveline
          446 hlineto
          hintmask 10011000
          2 55 rlineto
          hintmask 01011000
          -117 21 rlineto
          endchar
        </CharString>
        <CharString name="one.dnom">
          -397 0 29 hstem
          94 121 vstem
          215 296 12 callgsubr
          endchar
        </CharString>
        <CharString name="one.numr">
          -397 334 29 hstem
          94 121 vstem
          215 630 12 callgsubr
          endchar
        </CharString>
        <CharString name="onehalf">
          127 0 351 callsubr
          -2 29 hstemhm
          94 121 457 117 hintmask 01001000
          215 630 rmoveto
          -50 31 rlineto
          1 -1 -1 vlineto
          -148 -80 20 -42 58 22 rlineto
          hintmask 00011000
          -178 vlineto
          -23 -6 -30 -16 -13 -12 3 -15 rcurveline
          240 29 hlineto
          -56 18 rlineto
          -62 -371 155 callsubr
          hintmask 00101100
          521 100 rmoveto
          224 callsubr
          hintmask 01001000
          -68 -59 20 -53 rlineto
          241 hlineto
          hintmask 10001100
          154 callgsubr
          hintmask 01001100
          245 callsubr
          hintmask 00101100
          292 callsubr
        </CharString>
        <CharString name="onequarter">
          151 310 callsubr
          204.5 29 hstemhm
          94 121 433 109 hintmask 10111100
          215 630 12 callgsubr
          -62 -371 155 callsubr
          712 -78 rmoveto
          30 vlineto
          hintmask 01111100
          -20 callgsubr
          hlineto
          hintmask 10111100
          -23 vlineto
          48 callsubr
        </CharString>
        <CharString name="onesuperior">
          -397 415 29 hstem
          94 121 vstem
          215 711 12 callgsubr
          endchar
        </CharString>
        <CharString name="ordfeminine">
          -230 188 67 42 80 -23 28 37 41.5 106.5 61 hstemhm
          34 126 64 136 hintmask 10111110
          34 380 rmoveto
          -49 46 -45 85 14 vhcurveto
          69 48 16 -33 31 -18 33 -1 rlinecurve
          99 58 -1 29 rlineto
          -16 -9 -1 -11 hhcurveto
          -11 -5 9 9 hvcurveto
          113 vlineto
          35 -1 18 -6 11 vhcurveto
          -22 31 -31 17 -44 3 rrcurveto
          -63 -75 -11 -21 -63 hvcurveto
          -3 -33 3 -43 6 -33 83 1 rcurveline
          21 76 rlineto
          1 7 11 2 10 hhcurveto
          14 -6 17 -15 -40 vvcurveto
          -45 vlineto
          -136 -1 rlineto
          -38 -20 -16 -32 -28 vvcurveto
          hintmask 11011110
          137 -11 rmoveto
          -7 5 -4 8 9 vvcurveto
          20 23 10 26 -2 vhcurveto
          15 -1 rlineto
          -41 vlineto
          -16 -3 -22 -4 -15 -1 rrcurveto
          -140 -114 rmoveto
          -67 392 67 vlineto
          endchar
        </CharString>
        <CharString name="ordmasculine">
          -241 188 67 29 78 180 89 hstemhm
          16 384 -372 141 77 140 hintmask 11101100
          208 284 rmoveto
          93 85 62 110 109 -84 66 -91 -87 -96 -61 -113 -108 86 -65 94 hvcurveto
          8 78 rmoveto
          -29 -18 25 68 44 8 34 10 6 hvcurveto
          1 5 4 2 6 hhcurveto
          29 15 -33 -68 -47 -9 -27 -8 -4 hvcurveto
          -4 -3 -1 -6 hhcurveto
          hintmask 10010000
          -200 -107 rmoveto
          -67 384 67 vlineto
          endchar
        </CharString>
        <CharString name="oslash">
          -132 -20 98 -65 -21 404 108 -17 -20 31 -20 hstemhm
          200 callsubr
          hintmask 10100110
          272 -20 rmoveto
          135 119 94 167 hvcurveto
          hintmask 10001110
          72 -22 57 -36 43 vhcurveto
          56 85 rlineto
          hintmask 10010110
          -107 68 -53 -79 rlineto
          hintmask 01100110
          11 -31 -33 6 -33 hhcurveto
          -134 -125 -92 -167 -80 29 -64 45 -45 hvcurveto
          -59 -84 105 -69 62 89 rlineto
          hintmask 10100110
          -8 26 28 -4 28 hhcurveto
          3 98 rmoveto
          -48 -17 70 91 70 9 57 15 23 hvcurveto
          5 7 10 2 10 hhcurveto
          46 17 -74 -93 -71 -8 -59 -20 -17 hvcurveto
          -3 -8 -6 -1 -7 hhcurveto
          endchar
        </CharString>
        <CharString name="otilde">
          161 callgsubr
          118 127 hstem
          200 callsubr
          vstem
          -92 callgsubr
          -169 464 -28 callgsubr
        </CharString>
</ttFont>
